<svg width="354" height="277" viewBox="0 0 354 277" fill="none" xmlns="http://www.w3.org/2000/svg">
<path d="M159.185 106.526C159.185 106.526 114.855 125.49 113.369 127.97C111.882 130.451 105.324 183.347 104.722 210.874C104.12 238.402 104.722 257.173 104.722 257.173H133.334C133.334 257.173 133.334 228.589 133.777 218.151C134.224 210.457 135.045 202.79 136.237 195.181C136.237 195.181 139.591 213.043 139.361 219.539C139.131 226.035 137.131 257.21 137.131 257.21H226.082C226.082 257.21 221.604 216.093 222.055 210.525C222.507 204.957 227.64 181.289 227.64 181.289L238.366 122.586C238.366 122.586 202.081 107.279 197.78 105.653C193.479 104.026 159.185 106.526 159.185 106.526Z" fill="#68E1FD"/>
<path d="M182.77 257.632C182.653 257.632 182.54 257.584 182.457 257.498C182.374 257.412 182.328 257.295 182.328 257.173V208.173C182.328 208.051 182.374 207.934 182.457 207.848C182.54 207.762 182.653 207.714 182.77 207.714C182.888 207.714 183 207.762 183.083 207.848C183.166 207.934 183.213 208.051 183.213 208.173V257.173C183.213 257.295 183.166 257.412 183.083 257.498C183 257.584 182.888 257.632 182.77 257.632Z" fill="#231F20"/>
<path d="M163.318 96.9607L196.169 97.071L195.594 110.09H172.389L161.123 104.495L163.318 96.9607Z" fill="#231F20"/>
<path d="M195.585 110.55H172.389C172.328 110.562 172.265 110.562 172.203 110.55L160.937 104.954C160.84 104.908 160.762 104.827 160.718 104.725C160.674 104.624 160.667 104.509 160.698 104.403L162.893 96.8779C162.919 96.7817 162.974 96.697 163.051 96.6372C163.128 96.5773 163.222 96.5456 163.318 96.5472L196.169 96.6574C196.229 96.6571 196.289 96.6701 196.344 96.6954C196.399 96.7208 196.448 96.7579 196.488 96.8044C196.531 96.8466 196.564 96.8981 196.586 96.9553C196.607 97.0125 196.616 97.074 196.612 97.1352L196.036 110.155C196.019 110.266 195.964 110.367 195.882 110.439C195.799 110.512 195.693 110.551 195.585 110.55ZM172.487 109.631H195.16L195.7 97.5303L163.637 97.42L161.645 104.247L172.487 109.631Z" fill="#231F20"/>
<path d="M204.718 63.8744C206.488 59.8501 206.957 54.4291 207.621 50.0923C208.125 46.8489 209.471 41.6117 208.046 38.4786C207.117 36.4205 203.939 34.344 202.054 33.3057C201.169 25.211 193.797 20.2495 186.425 19.836C182 19.5787 177.575 20.8099 173.354 22.2249C169.132 23.6399 164.769 25.4591 162.592 29.3824C162.195 30.2763 161.712 31.126 161.15 31.9183C160.387 32.6628 159.533 33.2992 158.61 33.8111C152.795 37.7344 153.424 43.1186 154.185 49.3021C154.972 55.8624 157.141 62.3584 157.725 68.8084C165.026 69.2678 172.389 69.9202 179.761 69.8007C185.638 69.6997 201.585 71.0319 204.718 63.8744Z" fill="white"/>
<path d="M185.779 70.2969C184.664 70.2969 183.602 70.2969 182.62 70.2969C181.637 70.2969 180.567 70.2969 179.788 70.2969C173.805 70.398 167.743 69.9753 161.893 69.5803L157.716 69.3046C157.611 69.2968 157.512 69.2512 157.436 69.1757C157.36 69.1002 157.312 68.9996 157.3 68.8911C156.898 65.4863 156.292 62.1107 155.486 58.7843C154.744 55.6934 154.153 52.5654 153.716 49.4124C152.99 43.3299 152.3 37.5782 158.362 33.4803L159.026 33.0485C159.679 32.6837 160.275 32.2191 160.796 31.6703C161.191 31.1704 161.524 30.6209 161.787 30.0348C161.92 29.7683 162.052 29.5019 162.194 29.2446C164.406 25.2662 168.787 23.3551 173.194 21.8942C178.071 20.2679 182.177 19.2296 186.469 19.4777C193.629 19.882 201.391 24.6965 202.488 33.1128C203.851 33.8846 207.426 36.0714 208.471 38.3776C209.71 41.134 208.975 45.2043 208.382 48.4844C208.267 49.1184 208.161 49.7156 208.081 50.2669C207.957 51.0663 207.842 51.9024 207.718 52.7661C207.187 56.5332 206.594 60.7965 205.134 64.1317C202.665 69.6721 193.08 70.2969 185.779 70.2969ZM180.469 69.323H182.629C189.293 69.4149 201.718 69.5803 204.302 63.654C205.709 60.4381 206.293 56.2392 206.816 52.5272C206.94 51.6635 207.055 50.8182 207.178 50.0189C207.267 49.4676 207.373 48.8612 207.488 48.1812C208.055 45.0389 208.763 41.1156 207.639 38.644C206.86 36.9167 204.099 34.9688 201.842 33.6825C201.777 33.6504 201.722 33.6012 201.682 33.5399C201.641 33.4786 201.617 33.4074 201.612 33.3333C200.727 25.2662 193.257 20.6538 186.39 20.2679C182.283 20.029 178.257 21.0397 173.478 22.6384C169.239 24.0534 165.026 25.8726 162.973 29.5846C162.831 29.8327 162.707 30.0807 162.583 30.338C162.29 30.9984 161.916 31.6162 161.468 32.1756C160.889 32.7992 160.22 33.3261 159.486 33.7376C159.273 33.8754 159.052 34.004 158.849 34.151C153.247 37.9273 153.875 43.1554 154.601 49.2011C155.039 52.3204 155.63 55.4147 156.371 58.4719C157.144 61.7168 157.735 65.0055 158.141 68.3215L161.946 68.5788C167.787 68.983 173.823 69.3965 179.77 69.2954L180.469 69.323Z" fill="#231F20"/>
<path d="M165.592 64.9953C164.592 56.6709 151.432 54.1626 151.769 63.9387C151.751 67.3287 152.889 70.616 154.981 73.2187C157.167 75.6902 160.787 76.9582 163.787 75.6902" fill="white"/>
<path d="M161.265 76.6368C160.015 76.6137 158.784 76.3246 157.647 75.7872C156.51 75.2498 155.491 74.4757 154.654 73.5128C152.07 70.5818 151.415 66.6953 151.326 63.9389C151.167 59.2805 153.981 57.3878 156.636 57.1672C160.61 56.8365 165.486 59.9237 166.061 64.9312C166.068 64.9915 166.064 65.0527 166.048 65.1112C166.032 65.1697 166.006 65.2244 165.969 65.2722C165.933 65.3199 165.888 65.3599 165.837 65.3896C165.786 65.4194 165.73 65.4385 165.672 65.4457C165.614 65.4529 165.555 65.4482 165.499 65.4318C165.442 65.4154 165.39 65.3877 165.344 65.3501C165.298 65.3126 165.259 65.266 165.23 65.213C165.202 65.1601 165.183 65.1018 165.176 65.0414C164.637 60.576 160.282 57.7828 156.698 58.0861C153.786 58.3249 152.114 60.5025 152.273 63.9113C152.353 66.5023 152.963 70.1684 155.371 72.8972C157.592 75.4148 161.008 76.3887 163.681 75.2586C163.736 75.2265 163.796 75.2071 163.859 75.2014C163.922 75.1957 163.985 75.204 164.044 75.2257C164.104 75.2474 164.158 75.2819 164.203 75.3271C164.249 75.3723 164.285 75.427 164.308 75.4876C164.332 75.5483 164.342 75.6134 164.34 75.6787C164.337 75.744 164.321 75.8079 164.292 75.8662C164.264 75.9245 164.224 75.9759 164.175 76.0169C164.126 76.0579 164.069 76.0875 164.008 76.1039C163.137 76.4687 162.204 76.6499 161.265 76.6368Z" fill="#231F20"/>
<path d="M194.258 64.9953C195.258 56.6709 208.418 54.1626 208.081 63.9387C208.099 67.3287 206.961 70.616 204.869 73.2187C202.683 75.6902 199.063 76.9582 196.019 75.6902" fill="white"/>
<path d="M198.585 76.6367C197.675 76.6378 196.774 76.4569 195.93 76.1038C195.869 76.0875 195.812 76.0578 195.763 76.0168C195.714 75.9758 195.674 75.9245 195.646 75.8662C195.617 75.8078 195.601 75.7439 195.599 75.6786C195.596 75.6133 195.607 75.5482 195.63 75.4876C195.654 75.427 195.689 75.3722 195.735 75.3271C195.78 75.2819 195.835 75.2473 195.894 75.2256C195.953 75.2039 196.017 75.1957 196.079 75.2013C196.142 75.207 196.203 75.2265 196.258 75.2585C198.913 76.3794 202.346 75.4147 204.568 72.8972C206.975 70.1407 207.586 66.4655 207.665 63.9112C207.78 60.5025 206.108 58.3249 203.196 58.086C199.656 57.7828 195.231 60.576 194.718 65.0414C194.704 65.1632 194.643 65.2742 194.551 65.3501C194.458 65.4259 194.339 65.4603 194.222 65.4456C194.105 65.431 193.998 65.3686 193.925 65.2721C193.852 65.1756 193.819 65.0529 193.833 64.9311C194.435 59.942 199.284 56.8548 203.258 57.1672C205.913 57.3877 208.701 59.2804 208.568 63.9388C208.479 66.6952 207.825 70.5818 205.231 73.5128C204.391 74.481 203.367 75.2583 202.223 75.7959C201.079 76.3335 199.841 76.6198 198.585 76.6367Z" fill="#231F20"/>
<path d="M164.61 106.342C164.61 106.342 170.69 109.567 181.133 109.943C191.576 110.32 193.302 107.38 193.302 107.38L193.054 101.573L192.479 88.0942L191.93 75.4973L168.097 74.6428L166.964 84.8875L166.61 88.2044L164.61 106.342Z" fill="white"/>
<path d="M182.859 110.449H181.089C170.672 110.072 164.637 106.93 164.38 106.774C164.301 106.728 164.237 106.659 164.196 106.576C164.155 106.492 164.139 106.398 164.15 106.305L167.637 74.6061C167.64 74.5485 167.654 74.4922 167.679 74.4405C167.704 74.3888 167.738 74.3427 167.78 74.3051C167.822 74.2674 167.871 74.2388 167.924 74.2211C167.977 74.2034 168.033 74.1968 168.088 74.2018L191.921 75.0563C192.032 75.0609 192.138 75.1088 192.217 75.1905C192.295 75.2723 192.342 75.3818 192.346 75.4974L193.718 107.371C193.724 107.464 193.702 107.557 193.656 107.637C193.576 107.757 191.859 110.449 182.859 110.449ZM165.053 106.084C166.345 106.691 172.133 109.181 181.115 109.502C189.965 109.815 192.381 107.72 192.824 107.242L191.479 76.0027L168.469 75.1758L165.053 106.084Z" fill="#231F20"/>
<path d="M166.575 88.2229C168.274 91.3009 171.177 93.7357 174.168 95.6377C179.204 98.7708 186.762 102.354 193.019 101.592L192.443 88.1126C187.863 88.5464 183.249 88.4137 178.699 87.7176C174.69 87.203 170.566 86.6426 166.929 84.906L166.575 88.2229Z" fill="#231F20"/>
<path d="M191.24 102.161C184.806 102.161 177.761 98.4124 173.938 96.0235C170.327 93.7632 167.743 91.2181 166.194 88.4525C166.147 88.3696 166.128 88.2723 166.141 88.1768L166.486 84.8508C166.495 84.7788 166.519 84.7097 166.557 84.6492C166.596 84.5886 166.647 84.5381 166.707 84.5016C166.771 84.4699 166.841 84.4534 166.911 84.4534C166.981 84.4534 167.051 84.4699 167.115 84.5016C170.796 86.2657 175.026 86.7986 178.752 87.258C183.27 87.9547 187.851 88.0874 192.399 87.6531C192.459 87.6471 192.52 87.6538 192.578 87.6727C192.636 87.6917 192.689 87.7225 192.735 87.7634C192.781 87.8045 192.818 87.8552 192.844 87.9122C192.87 87.9692 192.884 88.0312 192.886 88.0942L193.461 101.573C193.466 101.689 193.429 101.803 193.357 101.891C193.285 101.98 193.183 102.037 193.072 102.051C192.464 102.125 191.852 102.162 191.24 102.161ZM167.035 88.1309C168.888 91.0943 171.417 93.537 174.398 95.2425C178.407 97.7324 186.018 101.775 192.558 101.178L192.045 88.6179C187.583 88.999 183.093 88.8479 178.664 88.1677C175.053 87.7083 170.982 87.1937 167.318 85.5766L167.035 88.1309Z" fill="#231F20"/>
<path d="M200.789 42.549L199.789 72.5756C199.746 73.8606 199.58 75.138 199.293 76.3887C198.298 80.631 195.925 84.3876 192.573 87.0253C189.222 89.663 185.097 91.0205 180.894 90.8691L178.77 90.7864C176.372 90.7034 174.012 90.1301 171.828 89.0992C169.643 88.0684 167.676 86.6004 166.038 84.7791C164.401 82.9578 163.125 80.8191 162.285 78.4855C161.444 76.1518 161.056 73.6689 161.141 71.1791L162.141 41.1616C162.141 41.1616 166.663 47.3268 179.602 47.2074C192.541 47.0879 200.789 42.549 200.789 42.549Z" fill="white"/>
<path d="M181.522 91.3467H180.876L178.77 91.2457C174.734 91.085 170.854 89.5793 167.706 86.9514C164.558 84.3236 162.309 80.7134 161.291 76.655C160.845 74.8557 160.651 72.999 160.716 71.1422L161.698 41.1064C161.7 41.0121 161.729 40.9206 161.783 40.8447C161.837 40.7689 161.913 40.7126 161.999 40.6837C162.087 40.6568 162.18 40.6583 162.267 40.6878C162.354 40.7173 162.431 40.7736 162.486 40.8491C162.53 40.9042 167.026 46.8397 179.584 46.7111C192.142 46.5825 200.497 42.1171 200.576 42.1171C200.644 42.0767 200.72 42.0555 200.798 42.0555C200.875 42.0555 200.952 42.0767 201.019 42.1171C201.083 42.1616 201.136 42.2217 201.173 42.2921C201.21 42.3625 201.23 42.4411 201.231 42.5213L200.222 72.548C200.186 73.8643 200.017 75.1731 199.718 76.4529C198.728 80.6912 196.397 84.4622 193.098 87.1624C189.799 89.8626 185.723 91.336 181.522 91.3467ZM162.539 42.2824L161.574 71.1973C161.515 72.9583 161.7 74.719 162.123 76.4253C163.09 80.2921 165.232 83.7324 168.231 86.2364C171.229 88.7404 174.925 90.1747 178.77 90.3269L180.903 90.4096C185.003 90.5476 189.024 89.2191 192.292 86.6466C195.561 84.074 197.88 80.4137 198.859 76.2783C199.137 75.0727 199.3 73.8417 199.346 72.6031L200.32 43.3391C193.765 46.2319 186.715 47.7195 179.593 47.7126C169.345 47.7861 164.309 44.0006 162.539 42.2824Z" fill="#231F20"/>
<path d="M200.01 66.0245C201.78 84.906 189.717 91.1906 180.903 90.8323L178.77 90.7863C158.689 89.2427 161.141 71.179 161.344 65.1516C162.229 70.2142 164.583 78.3365 168.787 79.2645C170.929 79.7331 172.956 74.11 174.982 72.9799C177.009 71.8497 182.859 72.5572 185.992 72.7777C189.125 72.9982 190.417 78.4927 192.054 79.2094C193.151 79.6963 197.904 74.6613 200.01 66.0245Z" fill="#D1D3D4"/>
<path d="M181.54 91.3469H180.876L178.77 91.2458C159.61 89.8033 160.468 73.5036 160.831 66.5575C160.831 66.0246 160.884 65.556 160.893 65.1333C160.889 65.073 160.896 65.0124 160.915 64.9551C160.933 64.8977 160.962 64.8447 161.001 64.799C161.078 64.7069 161.187 64.6503 161.305 64.6418C161.422 64.6332 161.538 64.6734 161.626 64.7536C161.715 64.8337 161.77 64.9472 161.778 65.069C162.858 71.1883 165.318 78.0242 168.858 78.8511C169.805 79.0624 170.991 77.3075 172.035 75.7639C172.724 74.5289 173.652 73.4557 174.761 72.6124C176.619 71.5742 181.133 71.9509 184.434 72.2265L186.009 72.3551C188.142 72.493 189.479 74.7624 190.541 76.5908C191.116 77.574 191.718 78.5846 192.213 78.796C193.036 78.9522 197.523 74.3306 199.559 65.9327C199.583 65.8275 199.643 65.7348 199.727 65.6709C199.812 65.607 199.915 65.5761 200.019 65.5835C200.123 65.5917 200.221 65.6376 200.295 65.7132C200.369 65.7889 200.416 65.8893 200.426 65.997C201.187 74.1192 199.435 80.8082 195.337 85.3379C193.546 87.2525 191.4 88.7717 189.029 89.8042C186.658 90.8368 184.111 91.3615 181.54 91.3469ZM161.619 68.588C161.336 76.2876 162.079 89.0407 178.797 90.327L180.912 90.4097C183.468 90.5152 186.016 90.0608 188.392 89.0762C190.768 88.0916 192.917 86.5987 194.7 84.6947C198.178 80.8449 199.895 75.3321 199.709 68.6432C197.789 74.597 194.7 78.5571 192.93 79.4667C192.777 79.5663 192.606 79.631 192.428 79.6564C192.249 79.6817 192.067 79.6672 191.895 79.6137C191.125 79.2829 190.514 78.2355 189.806 77.0319C188.797 75.3045 187.647 73.3566 185.965 73.2372L184.381 73.1086C181.372 72.8605 176.823 72.4746 175.195 73.3842C174.222 74.1731 173.403 75.1458 172.779 76.2509C171.522 78.0885 170.212 80.0547 168.69 79.7148C164.867 78.8695 162.69 72.8329 161.619 68.588Z" fill="#231F20"/>
<path d="M180.655 59.3816C180.655 59.3816 186.664 73.1637 184 73.375C181.337 73.5864 177.575 71.5374 177.575 71.5374" fill="white"/>
<path d="M183.54 73.8619C180.885 73.8619 177.522 72.0243 177.345 71.9784C177.29 71.9526 177.24 71.9153 177.199 71.8687C177.158 71.8222 177.127 71.7674 177.108 71.7078C177.088 71.6482 177.08 71.585 177.085 71.5222C177.09 71.4595 177.107 71.3984 177.136 71.3428C177.165 71.2873 177.204 71.2384 177.251 71.1993C177.299 71.1602 177.354 71.1316 177.412 71.1154C177.471 71.0992 177.532 71.0956 177.592 71.105C177.652 71.1144 177.71 71.1364 177.761 71.1698C177.761 71.1698 181.443 73.1453 183.956 72.9248C183.989 72.9225 184.02 72.911 184.046 72.8915C184.073 72.8721 184.094 72.8454 184.107 72.8145C184.894 71.4087 182.16 63.948 180.248 59.5745C180.2 59.4623 180.196 59.3348 180.237 59.2197C180.279 59.1045 180.362 59.0109 180.469 58.9589C180.576 58.9092 180.697 58.9054 180.807 58.9485C180.916 58.9915 181.005 59.0779 181.053 59.1886C181.938 61.1548 186.124 71.0504 184.876 73.2739C184.791 73.4318 184.67 73.5655 184.524 73.6632C184.377 73.7609 184.209 73.8197 184.036 73.8344C183.871 73.8524 183.706 73.8616 183.54 73.8619Z" fill="#231F20"/>
<path d="M184.416 81.7635C181.027 81.6748 177.691 80.8714 174.611 79.4022C174.507 79.3517 174.426 79.2615 174.386 79.1505C174.345 79.0396 174.347 78.9165 174.391 78.8072C174.436 78.6979 174.52 78.6107 174.625 78.5641C174.73 78.5174 174.849 78.5148 174.956 78.5569C183.965 82.5721 188.735 80.0637 188.779 80.0454C188.831 80.012 188.888 79.9899 188.948 79.9805C189.008 79.9712 189.069 79.9747 189.128 79.9909C189.187 80.0071 189.241 80.0357 189.289 80.0748C189.337 80.114 189.376 80.1628 189.404 80.2184C189.433 80.2739 189.45 80.335 189.455 80.3978C189.46 80.4606 189.452 80.5237 189.433 80.5833C189.413 80.6429 189.382 80.6977 189.341 80.7442C189.3 80.7908 189.251 80.8281 189.195 80.8539C187.689 81.5268 186.055 81.8377 184.416 81.7635Z" fill="#231F20"/>
<path d="M172.885 60.2361C173.579 60.2361 174.141 58.9197 174.141 57.2959C174.141 55.6721 173.579 54.3557 172.885 54.3557C172.191 54.3557 171.628 55.6721 171.628 57.2959C171.628 58.9197 172.191 60.2361 172.885 60.2361Z" fill="#231F20"/>
<path d="M189.647 60.2361C190.341 60.2361 190.903 58.9197 190.903 57.2959C190.903 55.6721 190.341 54.3557 189.647 54.3557C188.953 54.3557 188.39 55.6721 188.39 57.2959C188.39 58.9197 188.953 60.2361 189.647 60.2361Z" fill="#231F20"/>
<path d="M159.999 103.732L182.328 205.003L187.408 179.828L199.205 103.732L181.098 109.962L159.999 103.732Z" fill="#231F20"/>
<path d="M182.31 205.463C182.211 205.461 182.115 205.425 182.038 205.36C181.961 205.295 181.907 205.205 181.885 205.104L159.566 103.833C159.55 103.756 159.553 103.676 159.574 103.601C159.596 103.525 159.635 103.457 159.689 103.402C159.747 103.346 159.817 103.307 159.892 103.288C159.968 103.269 160.048 103.27 160.123 103.291L181.089 109.484L199.072 103.3C199.144 103.275 199.22 103.27 199.295 103.284C199.369 103.299 199.439 103.333 199.497 103.383C199.553 103.436 199.596 103.502 199.622 103.575C199.648 103.649 199.657 103.728 199.647 103.806L187.841 179.901L182.761 205.095C182.74 205.197 182.686 205.288 182.61 205.354C182.533 205.421 182.437 205.459 182.337 205.463H182.31ZM160.574 104.394L182.31 202.816L186.974 179.699L198.656 104.357L181.239 110.348C181.153 110.375 181.06 110.375 180.974 110.348L160.574 104.394Z" fill="#231F20"/>
<path d="M173.256 113.123L176.982 121.006L172.991 161.332L182.682 201.218L190.461 161.351L184.363 120.547L187.408 114.354L181.098 109.962L173.256 113.123Z" fill="#D1D3D4"/>
<path d="M182.682 201.677C182.584 201.68 182.488 201.648 182.411 201.586C182.334 201.524 182.279 201.436 182.257 201.337L172.575 161.47C172.566 161.419 172.566 161.366 172.575 161.314L176.558 121.116L172.894 113.343C172.868 113.286 172.854 113.223 172.854 113.159C172.854 113.096 172.868 113.033 172.894 112.976C172.915 112.917 172.948 112.864 172.991 112.819C173.033 112.775 173.085 112.74 173.141 112.718L180.983 109.558C181.045 109.524 181.115 109.506 181.186 109.506C181.257 109.506 181.327 109.524 181.39 109.558L187.691 113.959C187.782 114.019 187.848 114.113 187.876 114.222C187.904 114.331 187.892 114.447 187.841 114.547L184.868 120.602L190.948 161.259C190.961 161.313 190.961 161.37 190.948 161.424L183.168 201.291C183.15 201.394 183.097 201.487 183.02 201.554C182.942 201.622 182.845 201.658 182.744 201.659L182.682 201.677ZM173.46 161.296L182.664 199.15L190.045 161.342L183.947 120.611C183.935 120.516 183.951 120.42 183.991 120.335L186.859 114.51L181.071 110.476L173.894 113.361L177.434 120.804C177.456 120.885 177.456 120.971 177.434 121.052L173.46 161.296Z" fill="#231F20"/>
<path d="M196.169 97.071C195.718 97.071 180.956 109.934 180.956 109.934L190.08 120.96L199.205 103.686L196.169 97.071Z" fill="white"/>
<path d="M190.08 121.465C190.017 121.465 189.954 121.451 189.896 121.424C189.839 121.397 189.787 121.358 189.744 121.309L180.62 110.283C180.582 110.238 180.553 110.185 180.535 110.128C180.517 110.071 180.51 110.01 180.515 109.95C180.52 109.89 180.537 109.832 180.564 109.779C180.591 109.725 180.628 109.678 180.673 109.64C195.55 96.6392 195.966 96.6392 196.169 96.6392C196.253 96.6387 196.336 96.6636 196.406 96.7109C196.477 96.7582 196.533 96.8259 196.567 96.9056L199.603 103.567C199.635 103.631 199.652 103.702 199.652 103.774C199.652 103.846 199.635 103.917 199.603 103.98L190.479 121.254C190.443 121.319 190.393 121.375 190.333 121.416C190.273 121.458 190.205 121.484 190.133 121.493L190.08 121.465ZM181.584 110.017L190.001 120.207L198.709 103.668L195.983 97.6866C194.222 99.0556 186.735 105.487 181.584 110.017Z" fill="#231F20"/>
<path d="M163.318 96.9607C163.805 96.9607 181.098 109.962 181.098 109.962L170.548 120.988L159.999 103.714L163.318 96.9607Z" fill="white"/>
<path d="M170.548 121.465H170.504C170.438 121.459 170.373 121.436 170.317 121.399C170.26 121.363 170.212 121.313 170.177 121.254L159.627 103.98C159.589 103.91 159.568 103.831 159.568 103.751C159.568 103.67 159.589 103.591 159.627 103.521L162.946 96.7493C162.985 96.675 163.043 96.6129 163.113 96.5693C163.183 96.5257 163.263 96.5022 163.344 96.5012C163.53 96.5012 163.973 96.5012 181.381 109.585C181.432 109.626 181.475 109.677 181.507 109.735C181.539 109.794 181.559 109.858 181.567 109.925C181.572 109.991 181.563 110.058 181.54 110.12C181.517 110.182 181.481 110.238 181.434 110.283L170.885 121.309C170.844 121.36 170.792 121.401 170.734 121.428C170.676 121.455 170.612 121.468 170.548 121.465ZM160.504 103.705L170.628 120.243L180.416 110.017C174.221 105.423 165.371 98.8074 163.504 97.5854L160.504 103.705Z" fill="#231F20"/>
<path d="M159.999 103.732C159.999 103.732 179.248 193.325 182.77 202.366C182.77 202.366 142.273 130.911 142.06 129.514C141.848 128.118 147.875 122.256 147.875 122.256L142.954 119.968L147.379 111.653L159.999 103.732Z" fill="#68E1FD"/>
<path d="M182.77 202.816C182.694 202.816 182.619 202.796 182.553 202.757C182.486 202.718 182.43 202.663 182.39 202.596C175.619 190.651 141.839 130.984 141.609 129.578C141.379 128.173 145.034 124.396 147.069 122.384L142.759 120.381C142.703 120.355 142.653 120.317 142.612 120.269C142.571 120.222 142.54 120.166 142.52 120.105C142.497 120.047 142.484 119.985 142.484 119.922C142.484 119.859 142.497 119.796 142.52 119.738L146.945 111.414C146.982 111.344 147.037 111.286 147.105 111.248L159.725 103.328C159.788 103.296 159.858 103.28 159.928 103.28C159.999 103.28 160.068 103.296 160.132 103.328C160.195 103.358 160.251 103.402 160.296 103.458C160.34 103.514 160.372 103.579 160.389 103.65C160.574 104.568 179.664 193.307 183.133 202.219C183.178 202.325 183.181 202.446 183.141 202.554C183.101 202.662 183.022 202.75 182.921 202.798C182.872 202.815 182.821 202.821 182.77 202.816ZM143.565 119.747L148.034 121.833C148.103 121.859 148.163 121.905 148.208 121.965C148.254 122.025 148.282 122.097 148.291 122.173C148.302 122.248 148.296 122.324 148.273 122.396C148.25 122.469 148.211 122.534 148.158 122.586C145.352 125.343 142.405 128.705 142.485 129.431C142.989 131.021 166.911 173.461 181.133 198.562C175.982 179.947 161.389 112.286 159.698 104.449L147.706 111.974L143.565 119.747Z" fill="#231F20"/>
<path d="M199.205 103.732C199.205 103.732 186.301 193.325 182.77 202.366C182.77 202.366 216.931 130.911 217.161 129.514C217.391 128.118 211.347 122.256 211.347 122.256L216.267 119.968L211.842 111.653L199.205 103.732Z" fill="#68E1FD"/>
<path d="M182.77 202.817C182.712 202.83 182.651 202.83 182.593 202.817C182.488 202.77 182.404 202.682 182.361 202.572C182.318 202.462 182.319 202.338 182.363 202.229C185.823 193.325 198.638 104.587 198.771 103.696C198.78 103.62 198.807 103.548 198.851 103.487C198.894 103.426 198.952 103.378 199.019 103.346C199.083 103.313 199.155 103.295 199.227 103.295C199.299 103.295 199.37 103.313 199.435 103.346L212.055 111.267C212.122 111.305 212.177 111.362 212.214 111.432L216.639 119.756C216.665 119.814 216.679 119.877 216.679 119.94C216.679 120.004 216.665 120.066 216.639 120.124C216.62 120.185 216.589 120.24 216.548 120.288C216.507 120.335 216.456 120.373 216.4 120.4L212.09 122.403C214.126 124.415 217.772 128.237 217.551 129.597C217.329 130.957 186.576 195.264 183.124 202.587C183.088 202.652 183.037 202.708 182.975 202.748C182.913 202.788 182.843 202.811 182.77 202.817ZM199.585 104.504C198.426 112.507 188.868 178.266 184.487 197.837C196.55 172.588 216.347 130.938 216.763 129.431C216.834 128.733 213.887 125.334 211.081 122.614C211.029 122.561 210.989 122.496 210.966 122.424C210.943 122.352 210.937 122.275 210.949 122.2C210.958 122.125 210.987 122.054 211.032 121.994C211.077 121.934 211.137 121.888 211.205 121.86L215.683 119.775L211.515 111.983L199.585 104.504Z" fill="#231F20"/>
<path d="M238.366 122.549C238.366 122.549 239.932 121.162 241.906 124.387C243.879 127.612 291.652 221.624 270.81 229.903C263.819 232.659 203.692 237.41 203.692 237.41L206.205 205.848L235.932 204.93C235.932 204.93 223.64 185.901 223.409 182.878C223.179 179.855 238.366 122.549 238.366 122.549Z" fill="#68E1FD"/>
<path d="M204.816 209.505C202.363 209.1 199.979 208.332 197.736 207.227C194.833 205.61 187.779 195.981 185.186 194.364C182.593 192.746 164.831 186.802 165.371 190.688C165.911 194.575 172.301 195.916 172.301 195.916C172.301 195.916 165.159 196.293 164.265 199.169C163.371 202.045 163.99 212.951 167.477 217.049C170.964 221.147 188.142 226.099 193.85 228.01C197.39 229.186 203.683 229.637 203.683 229.637L204.816 209.505Z" fill="white"/>
<path d="M203.727 230.096C203.47 230.096 197.328 229.636 193.788 228.451L190.532 227.404C182.947 224.996 170.256 220.972 167.212 217.361C163.557 213.024 162.99 201.999 163.911 199.031C164.557 196.954 167.814 196.072 170.106 195.714C168.097 194.942 165.371 193.417 164.999 190.762C164.954 190.498 164.987 190.226 165.092 189.982C165.198 189.738 165.372 189.532 165.592 189.393C168.46 187.417 183.195 192.517 185.487 193.987C186.753 194.795 188.956 197.331 191.293 200.005C193.753 202.844 196.541 206.051 198.01 206.868C200.199 207.943 202.523 208.691 204.913 209.092C205.021 209.112 205.119 209.172 205.188 209.262C205.256 209.352 205.291 209.464 205.285 209.579L204.196 229.701C204.189 229.819 204.14 229.929 204.058 230.011C203.976 230.093 203.867 230.14 203.754 230.142L203.727 230.096ZM167.716 189.815C167.143 189.769 166.569 189.883 166.053 190.146C165.973 190.192 165.91 190.263 165.873 190.349C165.837 190.436 165.828 190.532 165.849 190.624C166.345 194.161 172.371 195.448 172.433 195.466C172.54 195.484 172.636 195.543 172.701 195.632C172.767 195.721 172.798 195.832 172.787 195.944C172.779 196.054 172.732 196.158 172.656 196.236C172.579 196.314 172.478 196.36 172.371 196.366C170.469 196.477 165.38 197.202 164.725 199.307C163.84 202.118 164.575 212.868 167.849 216.764C170.725 220.173 183.779 224.316 190.771 226.54C192.054 226.944 193.178 227.303 194.027 227.587C197.068 228.41 200.176 228.936 203.311 229.159L204.355 209.864C202.002 209.445 199.717 208.684 197.567 207.603C195.957 206.685 193.24 203.579 190.602 200.547C188.417 198.039 186.177 195.438 185 194.703C183.053 193.509 172.248 189.815 167.716 189.815Z" fill="#231F20"/>
<path d="M203.931 234.828L206.187 205.849H201.045L197.691 232.531L203.931 234.828Z" fill="#231F20"/>
<path d="M203.931 235.296C203.881 235.305 203.83 235.305 203.78 235.296L197.585 232.99C197.489 232.957 197.408 232.89 197.355 232.801C197.301 232.712 197.28 232.607 197.293 232.503L200.647 205.858C200.66 205.747 200.711 205.645 200.791 205.571C200.871 205.497 200.974 205.455 201.081 205.453H206.205C206.266 205.454 206.327 205.467 206.383 205.493C206.439 205.518 206.49 205.554 206.532 205.6C206.613 205.697 206.655 205.822 206.648 205.95L204.391 234.938C204.382 235.008 204.359 235.075 204.324 235.135C204.289 235.195 204.243 235.247 204.187 235.287C204.104 235.315 204.015 235.318 203.931 235.296ZM198.178 232.227L203.488 234.203L205.665 206.308H201.391L198.178 232.227Z" fill="#231F20"/>
<path d="M203.727 237.869C203.606 237.865 203.492 237.812 203.408 237.722C203.364 237.675 203.33 237.619 203.309 237.557C203.288 237.495 203.279 237.429 203.284 237.364L205.745 205.812C205.749 205.751 205.766 205.693 205.792 205.639C205.819 205.585 205.855 205.537 205.899 205.498C205.944 205.458 205.995 205.429 206.051 205.41C206.106 205.391 206.165 205.384 206.223 205.389C206.281 205.394 206.337 205.411 206.389 205.438C206.441 205.466 206.487 205.504 206.525 205.55C206.563 205.596 206.592 205.649 206.61 205.707C206.628 205.764 206.634 205.825 206.63 205.885L204.214 236.913C209.241 236.619 250.154 234.065 267.872 229.802C267.989 229.774 268.112 229.795 268.215 229.862C268.317 229.928 268.389 230.034 268.416 230.156C268.443 230.277 268.422 230.405 268.358 230.511C268.295 230.617 268.193 230.693 268.075 230.721C249.198 235.26 204.205 237.86 203.754 237.878L203.727 237.869Z" fill="#231F20"/>
<path d="M206.205 206.308C206.088 206.308 205.975 206.26 205.892 206.173C205.809 206.087 205.763 205.97 205.763 205.849C205.763 205.727 205.809 205.61 205.892 205.524C205.975 205.438 206.088 205.389 206.205 205.389L235.136 204.47L225.675 189.632C225.61 189.529 225.588 189.405 225.612 189.285C225.636 189.165 225.705 189.06 225.803 188.993C225.902 188.926 226.022 188.902 226.137 188.927C226.253 188.952 226.354 189.024 226.418 189.126L236.295 204.654C236.334 204.724 236.354 204.803 236.354 204.884C236.354 204.965 236.334 205.044 236.295 205.114C236.259 205.187 236.205 205.249 236.138 205.293C236.071 205.336 235.994 205.36 235.914 205.362L206.196 206.28L206.205 206.308Z" fill="#231F20"/>
<path d="M222.578 205.463H222.489C222.373 205.436 222.272 205.364 222.208 205.26C222.143 205.157 222.12 205.032 222.144 204.911C222.224 204.498 230.525 162.766 234.206 142.736C234.232 142.617 234.301 142.514 234.398 142.447C234.495 142.38 234.614 142.355 234.729 142.377C234.843 142.4 234.945 142.468 235.011 142.568C235.078 142.668 235.103 142.791 235.083 142.91C231.401 162.94 223.091 204.654 223.02 205.095C222.998 205.2 222.942 205.293 222.861 205.36C222.781 205.427 222.681 205.463 222.578 205.463Z" fill="#231F20"/>
<path d="M137.343 249.115C137.285 249.111 137.228 249.094 137.176 249.067C137.124 249.039 137.078 249.001 137.04 248.955C137.002 248.909 136.974 248.856 136.956 248.798C136.938 248.74 136.931 248.679 136.936 248.619C136.936 248.389 138.662 224.941 138.963 219.511C139.202 215.046 138.255 209.496 136.821 201.135C136.514 199.298 136.187 197.35 135.839 195.292C133.909 183.659 119.387 136.047 119.236 135.569C119.218 135.511 119.212 135.45 119.217 135.39C119.222 135.329 119.239 135.27 119.266 135.216C119.293 135.162 119.33 135.115 119.375 135.076C119.42 135.037 119.472 135.008 119.528 134.99C119.583 134.972 119.641 134.965 119.699 134.971C119.757 134.976 119.813 134.993 119.864 135.022C119.915 135.05 119.96 135.088 119.997 135.135C120.034 135.182 120.061 135.236 120.077 135.293C120.227 135.771 134.768 183.439 136.706 195.135C137.051 197.221 137.387 199.16 137.688 200.97C139.14 209.441 140.087 215.028 139.839 219.603C139.547 225.033 137.839 248.49 137.821 248.729C137.804 248.845 137.744 248.949 137.656 249.02C137.567 249.092 137.455 249.126 137.343 249.115Z" fill="#231F20"/>
<path d="M133.777 218.611C133.677 218.61 133.58 218.574 133.502 218.51C133.06 218.151 122.546 209.607 119.271 205.279C119.208 205.182 119.183 205.064 119.201 204.949C119.219 204.833 119.278 204.729 119.367 204.658C119.456 204.586 119.568 204.553 119.681 204.564C119.793 204.575 119.896 204.631 119.971 204.719C123.183 208.954 133.945 217.701 134.051 217.784C134.143 217.858 134.204 217.968 134.219 218.088C134.234 218.209 134.202 218.331 134.131 218.427C134.089 218.484 134.035 218.53 133.974 218.561C133.913 218.593 133.845 218.61 133.777 218.611Z" fill="#231F20"/>
<path d="M235.914 205.38C235.797 205.38 235.685 205.332 235.602 205.245C235.519 205.159 235.472 205.042 235.472 204.921C235.472 204.799 235.519 204.682 235.602 204.596C235.685 204.51 235.797 204.461 235.914 204.461L254.615 203.763C254.732 203.763 254.844 203.811 254.927 203.898C255.01 203.984 255.057 204.101 255.057 204.222C255.057 204.344 255.01 204.461 254.927 204.547C254.844 204.633 254.732 204.682 254.615 204.682L235.914 205.38Z" fill="#231F20"/>
<path d="M149.025 250.301C148.926 250.301 148.829 250.268 148.75 250.204C148.671 250.141 148.615 250.052 148.591 249.951C148.565 249.833 148.584 249.709 148.646 249.606C148.707 249.502 148.805 249.428 148.919 249.4L171.283 243.731C171.397 243.703 171.516 243.724 171.616 243.787C171.715 243.851 171.787 243.953 171.814 244.071C171.83 244.129 171.834 244.19 171.826 244.249C171.819 244.309 171.799 244.367 171.769 244.418C171.74 244.47 171.7 244.515 171.653 244.55C171.606 244.585 171.552 244.61 171.495 244.622L149.131 250.291L149.025 250.301Z" fill="#231F20"/>
<path d="M225.109 249.85H225.002L202.665 244.163C202.551 244.132 202.452 244.057 202.391 243.952C202.33 243.847 202.311 243.722 202.338 243.602C202.369 243.485 202.442 243.386 202.543 243.324C202.644 243.262 202.764 243.243 202.877 243.272L225.241 248.931C225.359 248.946 225.466 249.009 225.539 249.105C225.612 249.201 225.645 249.324 225.631 249.446C225.617 249.568 225.557 249.679 225.464 249.755C225.371 249.831 225.253 249.865 225.135 249.85H225.109Z" fill="#231F20"/>
<path d="M178.46 229.342C179.091 229.342 179.602 228.812 179.602 228.157C179.602 227.503 179.091 226.972 178.46 226.972C177.83 226.972 177.319 227.503 177.319 228.157C177.319 228.812 177.83 229.342 178.46 229.342Z" fill="#231F20"/>
<path d="M178.46 229.802C178.144 229.804 177.835 229.708 177.572 229.527C177.309 229.346 177.103 229.088 176.981 228.785C176.86 228.483 176.827 228.149 176.889 227.828C176.95 227.506 177.102 227.21 177.325 226.979C177.548 226.747 177.833 226.589 178.143 226.525C178.453 226.462 178.774 226.495 179.065 226.622C179.357 226.748 179.605 226.962 179.78 227.235C179.954 227.508 180.046 227.829 180.044 228.157C180.042 228.593 179.874 229.01 179.578 229.317C179.281 229.625 178.88 229.799 178.46 229.802ZM178.46 227.422C178.32 227.42 178.182 227.462 178.065 227.542C177.947 227.621 177.855 227.735 177.8 227.869C177.745 228.004 177.73 228.152 177.756 228.295C177.782 228.438 177.849 228.57 177.948 228.674C178.046 228.777 178.172 228.848 178.31 228.877C178.448 228.906 178.59 228.892 178.72 228.837C178.85 228.782 178.961 228.688 179.039 228.566C179.118 228.445 179.159 228.303 179.159 228.157C179.159 227.964 179.086 227.778 178.955 227.641C178.824 227.503 178.646 227.425 178.46 227.422Z" fill="#231F20"/>
<path d="M178.46 246.552C179.091 246.552 179.602 246.021 179.602 245.366C179.602 244.712 179.091 244.181 178.46 244.181C177.83 244.181 177.319 244.712 177.319 245.366C177.319 246.021 177.83 246.552 178.46 246.552Z" fill="#231F20"/>
<path d="M178.46 247.011C178.147 247.011 177.841 246.915 177.58 246.734C177.32 246.553 177.117 246.296 176.997 245.996C176.877 245.695 176.845 245.365 176.907 245.045C176.968 244.726 177.119 244.433 177.34 244.203C177.562 243.973 177.844 243.817 178.151 243.753C178.458 243.69 178.777 243.722 179.066 243.847C179.356 243.971 179.603 244.182 179.777 244.453C179.951 244.723 180.044 245.041 180.044 245.366C180.042 245.802 179.874 246.219 179.578 246.527C179.281 246.835 178.88 247.009 178.46 247.011ZM178.46 244.64C178.322 244.64 178.187 244.683 178.072 244.763C177.957 244.843 177.867 244.956 177.814 245.089C177.761 245.221 177.748 245.367 177.775 245.508C177.802 245.649 177.868 245.778 177.966 245.88C178.064 245.981 178.188 246.05 178.324 246.078C178.459 246.106 178.6 246.092 178.728 246.037C178.856 245.982 178.965 245.889 179.042 245.77C179.118 245.65 179.159 245.51 179.159 245.366C179.159 245.271 179.141 245.177 179.106 245.089C179.071 245.001 179.02 244.92 178.955 244.853C178.89 244.786 178.813 244.732 178.728 244.696C178.643 244.659 178.552 244.64 178.46 244.64Z" fill="#231F20"/>
</svg>
