<svg width="111" height="108" viewBox="0 0 111 108" fill="none" xmlns="http://www.w3.org/2000/svg">
<path d="M54.3145 33.48C54.3147 29.1643 55.8255 24.9773 58.5981 21.6087C61.3707 18.24 65.2398 15.8905 69.5681 14.9472C66.7144 14.3276 63.7541 14.3399 60.9059 14.9831C58.0577 15.6262 55.3944 16.8838 53.1129 18.663C50.8313 20.4421 48.9898 22.6973 47.7244 25.262C46.4589 27.8266 45.8019 30.6351 45.8019 33.48C45.8019 36.3249 46.4589 39.1334 47.7244 41.698C48.9898 44.2627 50.8313 46.5179 53.1129 48.297C55.3944 50.0762 58.0577 51.3338 60.9059 51.9769C63.7541 52.6201 66.7144 52.6324 69.5681 52.0128C65.24 51.0691 61.3712 48.7195 58.5986 45.3509C55.8261 41.9824 54.3151 37.7956 54.3145 33.48Z" fill="#09FA86"/>
<path d="M52.0457 93.4826C54.8963 93.4826 57.2072 91.2342 57.2072 88.4606C57.2072 85.6871 54.8963 83.4386 52.0457 83.4386C49.195 83.4386 46.8842 85.6871 46.8842 88.4606C46.8842 91.2342 49.195 93.4826 52.0457 93.4826Z" fill="#09FA86"/>
<path d="M77.2849 93.4826C80.1355 93.4826 82.4464 91.2342 82.4464 88.4606C82.4464 85.6871 80.1355 83.4386 77.2849 83.4386C74.4342 83.4386 72.1234 85.6871 72.1234 88.4606C72.1234 91.2342 74.4342 93.4826 77.2849 93.4826Z" fill="#09FA86"/>
<path d="M52.9825 45.954C52.9825 45.954 54.5121 65.191 68.1163 67.0831H40.1087L33.5975 33.0826L45.7875 33.48C45.7875 33.48 48.7312 42.3641 52.9825 45.954Z" fill="#09FA86"/>
<path d="M46.1627 34.6032H34.0548C33.6491 34.6032 33.2601 34.4464 32.9732 34.1673C32.6864 33.8882 32.5252 33.5097 32.5252 33.115C32.5252 32.7203 32.6864 32.3417 32.9732 32.0626C33.2601 31.7835 33.6491 31.6267 34.0548 31.6267H46.1627C46.5683 31.6267 46.9574 31.7835 47.2442 32.0626C47.5311 32.3417 47.6922 32.7203 47.6922 33.115C47.6922 33.5097 47.5311 33.8882 47.2442 34.1673C46.9574 34.4464 46.5683 34.6032 46.1627 34.6032Z" fill="#F6F6F9"/>
<path d="M89.9366 68.9774H40.6815C40.3278 68.9772 39.9851 68.8579 39.7116 68.6398C39.438 68.4217 39.2505 68.1182 39.1808 67.7808L30.5472 25.92H13.8972C13.6963 25.92 13.4974 25.8815 13.3118 25.8067C13.1263 25.7319 12.9577 25.6223 12.8156 25.4841C12.6736 25.3459 12.5609 25.1818 12.484 25.0013C12.4072 24.8207 12.3676 24.6272 12.3676 24.4318C12.3676 24.2363 12.4072 24.0428 12.484 23.8622C12.5609 23.6817 12.6736 23.5176 12.8156 23.3794C12.9577 23.2412 13.1263 23.1316 13.3118 23.0568C13.4974 22.982 13.6963 22.9435 13.8972 22.9435H31.7926C32.1464 22.9433 32.4893 23.0625 32.7629 23.2807C33.0366 23.4989 33.224 23.8026 33.2933 24.1402L41.9358 65.9988H88.6846L95.2225 34.6032H84.6153C84.2096 34.6032 83.8206 34.4464 83.5337 34.1673C83.2469 33.8882 83.0857 33.5097 83.0857 33.115C83.0857 32.7202 83.2469 32.3417 83.5337 32.0626C83.8206 31.7835 84.2096 31.6267 84.6153 31.6267H97.0939C97.3205 31.6268 97.5443 31.6759 97.749 31.7704C97.9538 31.8649 98.1344 32.0025 98.2778 32.1732C98.4212 32.344 98.5238 32.5436 98.5782 32.7576C98.6326 32.9716 98.6375 33.1948 98.5924 33.4109L91.4351 67.7851C91.365 68.1215 91.1775 68.424 90.9044 68.6413C90.6313 68.8585 90.2894 68.9773 89.9366 68.9774Z" fill="#F6F6F9"/>
<path d="M86.1182 79.6349H42.9614C42.6096 79.6351 42.2684 79.5172 41.9955 79.3012C41.7225 79.0852 41.5344 78.7842 41.4629 78.449L39.183 67.7916C39.0991 67.4049 39.1765 67.0016 39.3982 66.6705C39.6199 66.3393 39.9677 66.1074 40.3651 66.0258C40.7626 65.9442 41.1771 66.0195 41.5174 66.2352C41.8578 66.4509 42.0961 66.7893 42.18 67.176L44.2069 76.6476H86.1182C86.3242 76.64 86.5295 76.6728 86.7221 76.7442C86.9147 76.8157 87.0904 76.9241 87.2389 77.0632C87.3873 77.2022 87.5054 77.369 87.5861 77.5535C87.6668 77.738 87.7083 77.9364 87.7083 78.1369C87.7083 78.3374 87.6668 78.5359 87.5861 78.7203C87.5054 78.9048 87.3873 79.0716 87.2389 79.2107C87.0904 79.3497 86.9147 79.4582 86.7221 79.5296C86.5295 79.601 86.3242 79.6339 86.1182 79.6262V79.6349Z" fill="#F6F6F9"/>
<path d="M51.9325 96.0228C50.5713 96.0228 49.2408 95.6301 48.109 94.8943C46.9773 94.1585 46.0952 93.1128 45.5743 91.8892C45.0535 90.6657 44.9172 89.3194 45.1827 88.0205C45.4483 86.7216 46.1037 85.5285 47.0662 84.592C48.0286 83.6556 49.2549 83.0178 50.5899 82.7595C51.9248 82.5011 53.3086 82.6337 54.5661 83.1405C55.8236 83.6473 56.8985 84.5055 57.6547 85.6067C58.4109 86.7078 58.8145 88.0024 58.8145 89.3268C58.8104 91.1015 58.084 92.8023 56.7943 94.0572C55.5045 95.312 53.7564 96.0188 51.9325 96.0228ZM51.9325 85.5943C51.1749 85.5939 50.4342 85.8121 49.8041 86.2214C49.174 86.6306 48.6828 87.2125 48.3927 87.8934C48.1026 88.5744 48.0265 89.3237 48.1742 90.0467C48.3219 90.7697 48.6867 91.4338 49.2224 91.955C49.7581 92.4762 50.4406 92.8311 51.1837 92.9748C51.9268 93.1185 52.6969 93.0446 53.3968 92.7623C54.0966 92.48 54.6947 92.0021 55.1153 91.389C55.5359 90.776 55.7602 90.0553 55.7598 89.3182C55.7586 88.3309 55.355 87.3844 54.6375 86.6863C53.92 85.9882 52.9472 85.5955 51.9325 85.5943Z" fill="#F6F6F9"/>
<path d="M77.5846 96.0228C76.2234 96.0228 74.8929 95.6301 73.7611 94.8943C72.6294 94.1585 71.7473 93.1128 71.2264 91.8892C70.7055 90.6657 70.5692 89.3194 70.8348 88.0205C71.1003 86.7216 71.7558 85.5285 72.7182 84.592C73.6807 83.6556 74.907 83.0178 76.2419 82.7595C77.5769 82.5011 78.9607 82.6337 80.2182 83.1405C81.4757 83.6473 82.5505 84.5055 83.3067 85.6067C84.0629 86.7078 84.4666 88.0024 84.4666 89.3268C84.4624 91.1015 83.7361 92.8023 82.4463 94.0572C81.1566 95.312 79.4085 96.0188 77.5846 96.0228ZM77.5846 85.5943C76.827 85.5939 76.0863 85.8121 75.4562 86.2214C74.8261 86.6306 74.3349 87.2125 74.0448 87.8934C73.7546 88.5744 73.6786 89.3237 73.8263 90.0467C73.974 90.7697 74.3388 91.4338 74.8745 91.955C75.4102 92.4762 76.0927 92.8311 76.8358 92.9748C77.5788 93.1185 78.349 93.0446 79.0488 92.7623C79.7487 92.48 80.3467 92.0021 80.7674 91.389C81.188 90.776 81.4123 90.0553 81.4118 89.3182C81.4107 88.3309 81.007 87.3844 80.2895 86.6863C79.572 85.9882 78.5992 85.5955 77.5846 85.5943Z" fill="#F6F6F9"/>
<path d="M64.6464 43.7832C64.4897 43.7838 64.3339 43.7605 64.1846 43.7141C63.8698 43.6173 63.5955 43.4241 63.4027 43.1633C63.2099 42.9025 63.1088 42.5881 63.1146 42.2669L63.27 34.776L57.2316 34.5103C56.9464 34.4987 56.6703 34.4097 56.4345 34.2533C56.1986 34.097 56.0124 33.8795 55.8969 33.6256C55.7814 33.3716 55.7413 33.0913 55.781 32.8163C55.8207 32.5414 55.9387 32.2827 56.1216 32.0695L67.0484 19.3255C67.2652 19.0744 67.561 18.8998 67.8901 18.8289C68.2191 18.758 68.563 18.7946 68.8685 18.9331C69.174 19.0716 69.424 19.3043 69.5798 19.5951C69.7356 19.8859 69.7885 20.2186 69.7302 20.5416L68.3516 28.0562H73.482C73.7595 28.0569 74.0315 28.1308 74.2692 28.2702C74.5068 28.4095 74.7011 28.6091 74.8312 28.8475C74.9614 29.0859 75.0226 29.3543 75.0082 29.6239C74.9938 29.8935 74.9044 30.1542 74.7496 30.3782L65.9074 43.1222C65.7683 43.3239 65.5808 43.4895 65.361 43.6047C65.1413 43.7199 64.896 43.7812 64.6464 43.7832ZM60.4439 31.6872L64.8839 31.8816C65.2816 31.8995 65.6565 32.0674 65.9292 32.3496C66.2019 32.6319 66.3509 33.0063 66.3447 33.3936L66.2692 37.2967L70.6049 31.0478H66.5156C66.292 31.0481 66.0709 31.0006 65.8682 30.9086C65.6655 30.8167 65.486 30.6825 65.3424 30.5156C65.1988 30.3487 65.0947 30.1532 65.0373 29.9428C64.98 29.7325 64.9708 29.5124 65.0105 29.2982L65.6965 25.5571L60.4439 31.6872Z" fill="#F6F6F9"/>
<path d="M65.3901 52.3692C61.2838 52.3713 57.2691 51.1884 53.854 48.9701C50.4388 46.7517 47.7766 43.5976 46.2042 39.9069C44.6318 36.2161 44.2198 32.1544 45.0203 28.2358C45.8209 24.3172 47.798 20.7176 50.7016 17.8925C53.6052 15.0674 57.3048 13.1437 61.3323 12.3647C65.3597 11.5858 69.5342 11.9867 73.3275 13.5166C77.1208 15.0465 80.3625 17.6368 82.6425 20.9596C84.9224 24.2825 86.1382 28.1887 86.136 32.184C86.1266 37.5346 83.9379 42.6635 80.0493 46.447C76.1607 50.2305 70.8894 52.3601 65.3901 52.3692ZM65.3901 14.9558C61.8906 14.9554 58.4696 15.9646 55.5595 17.8557C52.6494 19.7468 50.381 22.435 49.041 25.5804C47.701 28.7258 47.3496 32.1871 48.0312 35.5268C48.7129 38.8665 50.3969 41.9346 52.8705 44.3431C55.3441 46.7517 58.4961 48.3925 61.928 49.0582C65.36 49.724 68.9177 49.3847 72.1515 48.0833C75.3853 46.7818 78.1499 44.5767 80.0957 41.7467C82.0416 38.9167 83.0813 35.5889 83.0835 32.184C83.0812 27.6177 81.2167 23.239 77.8994 20.0089C74.5822 16.7789 70.0832 14.9616 65.3901 14.9558Z" fill="#F6F6F9"/>
</svg>
