<svg width="584" height="465" viewBox="0 0 584 465" fill="none" xmlns="http://www.w3.org/2000/svg">
<g clip-path="url(#clip0_4_4)">
<path d="M283.471 459.482L12.2131 293.627C3.58001 288.616 -3.82651 280.368 4.58641 274.983L276.803 112.658C280.892 110.039 287.088 108.33 291.239 110.82L576.021 281.783C584.654 286.973 586.21 301.468 577.593 306.658L319.261 459.222C313.833 462.483 307.676 464.222 301.399 464.268C295.123 464.314 288.943 462.664 283.471 459.482Z" fill="#4444A5"/>
<path d="M262.651 333.338C234.346 350.094 206.041 367.062 177.735 383.9C208.305 403.194 249.615 428.751 256.266 432.477L341.575 381.199L262.651 333.338Z" fill="url(#paint0_linear_4_4)"/>
<path d="M404.051 345.295L479.311 300.069L383.813 242.137L305.926 283.752C314.103 289.885 395.072 340.3 404.051 345.295Z" fill="url(#paint1_linear_4_4)"/>
<path d="M386.124 1.72418C406.866 15.1618 459.041 46.3807 476.827 57.6709C480.852 60.2251 481.544 64.0318 481.544 68.9286V297.352C480.447 298.669 478.932 299.537 477.271 299.799C475.61 300.062 473.913 299.702 472.486 298.784L384.945 247.604C380.589 244.952 377.161 242.219 377.161 236.997L377.916 5.87261C377.869 0.845695 382.02 -0.943821 386.124 1.72418Z" fill="#68E1FD"/>
<path d="M378.042 4.22951L406.504 21.2299V27.5908C406.506 28.1254 406.644 28.6501 406.903 29.1125C407.163 29.575 407.535 29.959 407.982 30.2263L429.997 43.3874C430.293 43.5641 430.629 43.6573 430.971 43.6576C431.312 43.6579 431.648 43.5652 431.945 43.3889C432.241 43.2126 432.487 42.9589 432.659 42.6531C432.83 42.3473 432.921 42.0002 432.922 41.6466V37.0102L474.279 62.0959C474.673 62.3366 474.998 62.6793 475.225 63.0901C475.451 63.501 475.569 63.9658 475.569 64.4386V292.846C475.575 293.173 475.498 293.495 475.344 293.781C475.19 294.066 474.965 294.304 474.693 294.47C474.421 294.636 474.111 294.723 473.795 294.724C473.479 294.724 473.168 294.638 472.895 294.473L377.114 237.029C376.943 238.804 377.246 240.592 377.989 242.201C378.732 243.81 379.887 245.178 381.328 246.156C386.297 249.409 473.54 300.508 473.54 300.508C473.54 300.508 480.443 303.762 482.456 295.221V65.3821C482.46 63.8948 482.123 62.4277 481.472 61.1013C480.822 59.775 479.876 58.6272 478.714 57.7523C474.719 54.7589 385.731 1.23614 385.731 1.23614C385.731 1.23614 379.457 -1.7735 378.042 4.22951Z" fill="#124577"/>
<path d="M361.813 51.2775V72.1823C362.006 73.8374 362.685 75.3914 363.76 76.6339C364.834 77.8764 366.252 78.7473 367.82 79.1288C373.293 80.414 374.11 72.9631 374.11 72.9631V57.5245L361.813 51.2775Z" fill="#C13D3D"/>
<path d="M373.717 59.5906L374.299 81.6016C374.491 83.2568 375.171 84.8108 376.245 86.0533C377.32 87.2958 378.737 88.1667 380.306 88.5482C385.778 89.8334 386.596 82.3825 386.596 82.3825V66.9439L373.717 59.5906Z" fill="#DD842A"/>
<path d="M386.454 67.074V87.9788C386.647 89.634 387.326 91.188 388.401 92.4305C389.475 93.6729 390.893 94.5439 392.461 94.9254C397.934 96.2106 398.751 88.7597 398.751 88.7597V73.321L386.454 67.074Z" fill="#C13D3D"/>
<path d="M398.673 74.6876V95.5924C398.865 97.2476 399.545 98.8016 400.619 100.044C401.694 101.287 403.111 102.157 404.68 102.539C410.152 103.824 410.97 96.3733 410.97 96.3733V80.9346L398.673 74.6876Z" fill="#DD842A"/>
<path d="M410.907 81.081V101.97C411.1 103.625 411.779 105.179 412.853 106.421C413.928 107.664 415.345 108.535 416.914 108.916C422.386 110.201 423.204 102.75 423.204 102.75V87.3118L410.907 81.081Z" fill="#C13D3D"/>
<path d="M422.921 89.6056V110.51C423.114 112.166 423.793 113.72 424.867 114.962C425.942 116.205 427.359 117.075 428.928 117.457C434.4 118.742 435.218 111.291 435.218 111.291V95.8527L422.921 89.6056Z" fill="#DD842A"/>
<path d="M422.921 90.6794L451.965 48.3329L463.161 55.4096L435.155 98.1465" fill="#F29D40"/>
<path d="M410.907 83.261L439.401 40.9308L451.965 48.3329L422.921 90.6793" fill="#E04F4F"/>
<path d="M398.673 75.8101L428.283 33.8541L439.401 40.9308L410.907 83.3586" fill="#F29D40"/>
<path d="M386.454 68.1152L415.2 26.2405L428.283 33.8541L398.673 75.7125" fill="#E04F4F"/>
<path d="M374.047 60.2251L401.551 18.3504L415.2 26.2405L386.455 68.1152" fill="#F29D40"/>
<path d="M361.813 52.5627L389.144 10.8507L401.551 18.3504L374.047 60.2251" fill="#E04F4F"/>
<path d="M349.595 45.1769L378.042 4.22949L389.143 10.8507L361.813 52.5627" fill="#F29D40"/>
<path d="M474.279 62.0959C474.279 62.0959 475.569 62.3725 475.569 64.6663V104.963L443.835 123.737L448.207 95.0067L474.279 62.0959Z" fill="#AA2B2B"/>
<path d="M435.155 98.1465V116.871C435.348 118.526 436.027 120.081 437.101 121.323C438.176 122.565 439.593 123.436 441.162 123.818C446.634 125.103 447.452 117.652 447.452 117.652L447.216 105.321L435.155 98.1465Z" fill="#C13D3D"/>
<path d="M447.138 105.337L474.279 62.0959L463.161 55.4096L435.155 98.1465" fill="#E04F4F"/>
<path d="M349.595 45.1768V67.1391C349.787 68.7943 350.467 70.3483 351.541 71.5907C352.616 72.8332 354.033 73.7042 355.602 74.0857C361.074 75.3709 361.892 67.92 361.892 67.92V52.4813L349.595 45.1768Z" fill="#DD842A"/>
<path d="M430.611 263.075C432.782 263.075 434.542 254.181 434.542 243.211C434.542 232.241 432.782 223.347 430.611 223.347C428.439 223.347 426.679 232.241 426.679 243.211C426.679 254.181 428.439 263.075 430.611 263.075Z" fill="#46BBCE"/>
<path d="M369.912 241.601C369.912 241.601 370.745 296.246 372.742 297.141C374.739 298.035 379.866 297.954 381.737 295.335C383.608 292.716 386.03 269.078 385.605 262.505C385.181 255.933 382.696 241.178 382.696 241.178" fill="#FFB288"/>
<path d="M369.188 298.865C370.392 296.923 371.201 294.748 371.563 292.472C375.73 293.545 378.985 294.196 382.57 291.984C383.262 295.091 385.715 298.979 385.495 301.37C385.212 305.145 382.114 303.925 379.017 304.901C376.831 305.584 375.29 307.91 373.953 310.058C371.868 312.376 369.121 313.943 366.112 314.529C363.104 315.114 359.994 314.688 357.237 313.311C356.855 312.403 356.621 311.436 356.545 310.448C356.042 306.104 366.955 302.184 369.188 298.865Z" fill="#29333F"/>
<path d="M397.321 198.424C397.341 194.343 397.619 190.267 398.154 186.223L390.291 184.596C373.183 192.519 369.849 241.535 369.849 241.535C369.849 241.535 381.816 248.043 385.181 247.148C387.917 246.416 394.867 224.665 397.352 216.564C397.242 210.561 397.148 204.492 397.321 198.424Z" fill="#DD842A"/>
<path d="M369.912 241.601L369.157 287.998C369.157 287.998 381.47 290.178 384.001 288.909C386.533 287.64 387.87 243.358 387.87 243.358L369.912 241.601Z" fill="#DD842A"/>
<path d="M393.641 228.391L390.826 201.206L387.87 243.439L393.641 228.391Z" fill="#B5641C"/>
<path opacity="0.32" d="M51.746 305.714L117.288 267.256L88.7471 253.932L24.8403 290.763C33.0646 296.88 42.7512 300.703 51.746 305.714Z" fill="url(#paint2_linear_4_4)"/>
<path d="M86.8286 232.816C86.8286 232.816 81.089 273.356 105.699 273.486C129.475 273.617 123.358 232.376 123.358 232.376C123.358 232.376 106.123 216.808 86.8286 232.816Z" fill="#68E1FD"/>
<path opacity="0.15" d="M86.8286 232.816C86.8286 232.816 81.089 273.356 105.699 273.486C129.475 273.617 123.358 232.376 123.358 232.376C123.358 232.376 106.123 216.808 86.8286 232.816Z" fill="black"/>
<path d="M105.038 240.608C115.113 240.608 123.279 237.119 123.279 232.816C123.279 228.512 115.113 225.023 105.038 225.023C94.964 225.023 86.7972 228.512 86.7972 232.816C86.7972 237.119 94.964 240.608 105.038 240.608Z" fill="#68E1FD"/>
<path opacity="0.7" d="M105.038 240.608C115.113 240.608 123.279 237.119 123.279 232.816C123.279 228.512 115.113 225.023 105.038 225.023C94.964 225.023 86.7972 228.512 86.7972 232.816C86.7972 237.119 94.964 240.608 105.038 240.608Z" fill="black"/>
<path d="M76.3243 173.615C76.3243 173.615 63.6184 170.459 68.4617 159.511C68.4932 159.511 77.2363 161.3 76.3243 173.615Z" fill="#938F05"/>
<path d="M84.061 184.645C84.061 184.645 82.2998 175.291 89.3604 171.517C89.3604 171.533 95.0371 181.326 84.061 184.645Z" fill="#938F05"/>
<path d="M91.9865 198.994C91.9865 198.994 89.8793 187.801 98.2765 183.295C98.3237 183.295 105.117 194.959 91.9865 198.994Z" fill="#938F05"/>
<path d="M98.1193 214.595C98.1193 214.595 96.0121 203.403 104.409 198.896C104.456 198.896 111.25 210.609 98.1193 214.595Z" fill="#938F05"/>
<path d="M83.2905 184.905C83.2905 184.905 78.8088 176.592 71.0564 178.398C71.0564 178.414 72.8333 189.672 83.2905 184.905Z" fill="#938F05"/>
<path d="M91.2474 199.335C91.2474 199.335 85.5077 189.574 76.3243 192.161C76.4029 192.161 79.029 205.55 91.2474 199.335Z" fill="#938F05"/>
<path d="M97.4116 214.742C97.4116 214.742 90.6813 205.729 81.8281 209.324C81.8123 209.308 85.8694 222.323 97.4116 214.742Z" fill="#938F05"/>
<path d="M102.176 240.69H102.349C102.945 240.676 103.54 240.725 104.126 240.836C104.133 240.771 104.133 240.706 104.126 240.641C101.354 215.623 91.8649 191.908 76.7331 172.184C75.9469 171.159 74.5473 172.607 75.3336 173.632C90.1304 192.943 99.4216 216.145 102.161 240.624L102.176 240.69Z" fill="#42352F"/>
<path d="M132.258 191.478C132.258 191.478 143.156 188.777 138.973 179.391C138.973 179.374 131.472 180.92 132.258 191.478Z" fill="#938F05"/>
<path d="M125.622 200.93C125.622 200.93 127.195 192.909 121.078 189.672C121.125 189.688 116.203 198.083 125.622 200.93Z" fill="#938F05"/>
<path d="M118.829 213.245C118.829 213.245 120.638 203.647 113.388 199.775C113.388 199.84 107.57 209.812 118.829 213.245Z" fill="#938F05"/>
<path d="M113.561 226.634C113.561 226.634 115.37 217.035 108.12 213.164C108.12 213.164 102.255 223.217 113.561 226.634Z" fill="#938F05"/>
<path d="M126.283 201.158C126.283 201.158 130.136 194.016 136.772 195.594C136.85 195.594 135.278 205.257 126.283 201.158Z" fill="#938F05"/>
<path d="M119.395 213.538C119.395 213.538 124.317 205.192 132.196 207.388C132.133 207.388 129.931 218.874 119.395 213.538Z" fill="#938F05"/>
<path d="M114.159 226.748C114.159 226.748 119.946 219.02 127.525 222.095C127.541 222.095 124.066 233.255 114.159 226.748Z" fill="#938F05"/>
<path d="M131.912 190.274C120.673 204.911 113.033 222.149 109.646 240.511C110.228 240.413 110.809 240.332 111.407 240.267C114.762 222.436 122.204 205.699 133.108 191.462C133.705 190.648 132.589 189.395 131.912 190.274Z" fill="#42352F"/>
<path d="M180.251 127.267C181.267 126.591 182.448 126.231 183.656 126.231C184.863 126.231 186.045 126.591 187.06 127.267C190.834 130.13 190.85 137.971 187.06 144.82C185.511 147.86 183.154 150.377 180.267 152.076C179.252 152.752 178.07 153.112 176.863 153.112C175.655 153.112 174.473 152.752 173.458 152.076C169.684 149.213 169.668 141.371 173.458 134.522C175.007 131.483 177.364 128.965 180.251 127.267Z" fill="#68E1FD"/>
<path d="M180.126 85.2945C190.976 79.5355 201.842 79.1126 210.129 85.4084C211.324 86.3194 211.34 88.8248 210.129 91.0047C209.632 91.9721 208.879 92.7733 207.959 93.3148C207.635 93.5293 207.259 93.6433 206.874 93.6433C206.489 93.6433 206.113 93.5293 205.789 93.3148C198.697 87.9463 189.403 88.3042 180.126 93.2172C170.848 98.1302 161.586 107.615 154.557 120.467C154.06 121.434 153.307 122.235 152.387 122.777C152.063 122.991 151.686 123.105 151.301 123.105C150.917 123.105 150.54 122.991 150.216 122.777C149.006 121.866 149.006 119.36 150.216 117.18C158.441 102.132 169.275 91.0535 180.126 85.2945Z" fill="#68E1FD"/>
<path d="M180.063 63.6089C195.017 55.6699 209.94 55.2307 221.656 64.0644C223.59 65.5448 222.206 70.5717 219.501 71.987C219.178 72.2034 218.801 72.3186 218.416 72.3186C218.031 72.3186 217.654 72.2034 217.331 71.987C206.858 64.0644 193.46 64.4223 180.078 71.5315C166.696 78.6408 153.346 92.4526 142.936 111.438C142.441 112.407 141.688 113.208 140.766 113.748C140.439 113.964 140.06 114.078 139.673 114.078C139.285 114.078 138.906 113.964 138.58 113.748C137.385 112.837 137.369 110.331 138.58 108.152C150.169 86.9539 165.155 71.5315 180.063 63.6089Z" fill="#68E1FD"/>
<path d="M180.188 105.581C187.013 101.97 193.854 101.693 199.059 105.581C200.993 107.045 199.609 112.088 196.904 113.488C196.58 113.7 196.203 113.813 195.819 113.813C195.435 113.813 195.059 113.7 194.734 113.488C190.724 110.445 185.456 110.641 180.204 113.488C174.053 117.101 169.028 122.457 165.721 128.926C165.235 129.891 164.493 130.692 163.583 131.236C163.256 131.452 162.877 131.567 162.49 131.567C162.103 131.567 161.723 131.452 161.397 131.236C160.202 130.309 160.186 127.804 161.397 125.64C166.539 116.172 173.364 109.193 180.188 105.581Z" fill="#68E1FD"/>
<path d="M199.452 293.708C220.869 281.263 246.36 267.5 267.762 255.054L285.201 244.919C287.151 243.781 289.352 242.056 291.491 241.031C292.188 241.227 292.848 241.547 293.441 241.975C295.642 243.602 298.252 244.757 300.596 246.107L321.541 258.211C332.014 264.262 347.393 271.534 357.866 277.586C360.068 277.586 357.347 276.187 359.533 275.959L359.392 275.845L328.099 257.755L305.109 244.464C301.712 242.495 297.01 238.363 293.158 237.55C290.956 237.078 290.107 237.908 288.078 239.079L274.114 247.213L229.046 273.421L197.691 291.593C197.327 291.787 197.05 292.119 196.92 292.52C199.121 292.569 197.25 293.822 199.452 293.708Z" fill="#D8D8D8"/>
<path d="M288.047 342.497C268.123 328.278 246.533 316.89 226.247 303.258C224.329 301.972 222.552 305.145 224.455 306.414C244.74 320.046 266.331 331.434 286.254 345.653C288.125 346.987 289.902 343.814 288.047 342.497Z" fill="#D8D8D8"/>
<path d="M326.683 319.152C305.628 307.682 285.688 294.228 265.23 281.734C264.829 281.54 264.373 281.508 263.95 281.644C263.527 281.779 263.169 282.073 262.944 282.468C262.72 282.863 262.646 283.33 262.737 283.778C262.829 284.226 263.078 284.623 263.437 284.89C283.88 297.45 303.835 310.92 324.891 322.308C326.904 323.398 328.696 320.242 326.683 319.152Z" fill="#D8D8D8"/>
<path d="M271.96 344.335L268.469 342.367C268.038 342.124 267.663 341.787 267.37 341.38C267.077 340.973 266.872 340.504 266.771 340.008C266.142 336.835 265.764 329.938 273.25 326.993L276.929 329.319" fill="#3695C9"/>
<path d="M280.876 339.031C283.334 334.627 283.32 329.858 280.846 328.381C278.371 326.903 274.373 329.275 271.915 333.679C269.457 338.083 269.471 342.851 271.945 344.329C274.42 345.807 278.418 343.435 280.876 339.031Z" fill="#1174B5"/>
<path d="M281.018 330.881V326.586L275.97 323.886L269.507 326.521L268.438 330.442L271.284 327.937L274.728 330.084V334.07L281.018 330.881Z" fill="#747E80"/>
<path d="M281.018 330.881C281.018 330.881 280.247 338.527 277.527 339.015C274.806 339.503 274.272 333.614 274.728 332.508" fill="#747E80"/>
<path d="M210.554 387.69L207.063 385.722C206.632 385.479 206.257 385.142 205.963 384.735C205.67 384.328 205.466 383.859 205.364 383.363C204.735 380.19 204.358 373.293 211.843 370.348L215.523 372.674" fill="#3695C9"/>
<path d="M221.008 381.412C223.466 376.988 223.443 372.203 220.957 370.725C218.471 369.247 214.464 371.636 212.006 376.06C209.548 380.484 209.571 385.269 212.057 386.747C214.543 388.225 218.55 385.836 221.008 381.412Z" fill="#1174B5"/>
<path d="M219.627 374.252V369.958L214.579 367.257L208.116 369.893L207.047 373.813L209.893 371.308L213.337 373.455V377.441L219.627 374.252Z" fill="#747E80"/>
<path d="M219.627 374.252C219.627 374.252 218.856 381.899 216.136 382.387C213.416 382.875 212.881 376.986 213.337 375.879" fill="#747E80"/>
<path d="M264.837 421.854L261.346 419.885C260.915 419.642 260.54 419.306 260.246 418.898C259.953 418.491 259.749 418.023 259.647 417.526C259.018 414.354 258.641 407.456 266.126 404.512L269.806 406.838" fill="#3695C9"/>
<path d="M275.417 415.344C277.875 410.92 277.852 406.135 275.366 404.657C272.88 403.179 268.873 405.567 266.415 409.992C263.957 414.416 263.98 419.201 266.466 420.679C268.951 422.157 272.959 419.768 275.417 415.344Z" fill="#1174B5"/>
<path d="M273.894 408.416V404.121L268.847 401.421L262.384 404.056L261.314 407.96L264.16 405.471L267.604 407.602V411.604L273.894 408.416Z" fill="#747E80"/>
<path d="M273.894 408.416C273.894 408.416 273.124 416.062 270.403 416.55C267.683 417.038 267.148 411.149 267.604 410.043" fill="#747E80"/>
<path d="M336.889 382.891L333.414 380.922C332.983 380.68 332.608 380.343 332.315 379.936C332.021 379.528 331.817 379.06 331.715 378.564C331.086 375.391 330.709 368.493 338.194 365.549L341.874 367.875" fill="#3695C9"/>
<path d="M347.317 376.091C349.775 371.667 349.753 366.882 347.267 365.404C344.781 363.926 340.773 366.315 338.315 370.739C335.858 375.163 335.88 379.948 338.366 381.426C340.852 382.904 344.86 380.515 347.317 376.091Z" fill="#1174B5"/>
<path d="M345.947 369.453V365.158L340.899 362.458L334.436 365.093L333.367 368.998L336.213 366.509L339.657 368.64V372.642L345.947 369.453Z" fill="#747E80"/>
<path d="M345.994 369.453C345.994 369.453 345.223 377.099 342.503 377.587C339.782 378.075 339.248 372.186 339.704 371.08" fill="#747E80"/>
<path d="M351.922 308.317C330.63 295.839 309.622 282.45 287.905 270.786C282.795 268.037 277.637 273.438 272.982 276.138L231.326 300.329L201.449 317.704C201.09 317.972 200.84 318.368 200.749 318.816C200.658 319.264 200.732 319.732 200.956 320.126C201.18 320.521 201.539 320.815 201.961 320.951C202.384 321.086 202.841 321.054 203.241 320.86L267.887 283.296L282.354 274.886L285.499 273.047C286.301 272.575 283.471 272.022 285.059 273.291C288.66 276.187 293.441 278.172 297.403 280.531L317.846 292.504L350.161 311.44C350.562 311.635 351.018 311.667 351.441 311.531C351.864 311.396 352.222 311.102 352.447 310.707C352.671 310.312 352.744 309.845 352.653 309.397C352.562 308.949 352.313 308.552 351.954 308.284L351.922 308.317Z" fill="#D8D8D8"/>
<path d="M303.646 189.021L314.953 182.042C316.421 180.916 318.003 179.956 319.67 179.179C318.286 179.618 317.736 178.675 319.088 179.748C325.237 184.629 332.801 188.273 339.421 192.405L383.168 219.638V216.482C378.167 219.394 369.314 221.997 367.238 227.675C364.502 235.191 363.763 244.269 362.128 252.077L344.563 335.957C342.865 344.091 340.207 352.567 339.358 360.831C339.091 363.418 340.427 361.303 338.414 362.198C334.75 363.824 331.212 366.069 327.69 367.989L290.956 387.771C282.716 392.213 274.492 397.532 265.906 401.274C266.346 401.079 267.478 402.397 266 400.721C264.758 399.322 261.959 398.232 260.402 397.256L241.909 385.868L212.504 367.696V370.852L248.121 344.904L269.586 329.27C271.724 327.644 274.492 326.358 275.703 323.983C277.275 320.73 277.495 315.491 278.234 311.961L283.377 287.559L296.35 226.146L304.417 187.931C304.904 185.638 301.492 184.678 301.004 186.955L281.977 277.017C278.942 291.398 275.31 305.795 272.841 320.307C272.736 321.314 272.525 322.307 272.212 323.267C273.014 321.38 271.834 323.121 270.403 324.162L251.36 338.12L210.758 367.664C210.498 367.83 210.283 368.062 210.134 368.338C209.985 368.614 209.907 368.926 209.907 369.242C209.907 369.558 209.985 369.869 210.134 370.145C210.283 370.421 210.498 370.654 210.758 370.82L235.446 386.079L254.034 397.565C257.273 399.566 261.22 403.112 264.852 404.251C269.381 405.667 275.954 400.005 279.98 397.841L317.406 377.669L333.414 369.03C335.647 367.826 339.704 366.606 341.449 364.703C344.06 361.872 344.123 355.284 344.893 351.607L361.876 270.477L369.739 233.255C369.975 232.149 371.185 226.943 370.682 227.642C369.88 228.765 372.255 226.992 372.789 226.715C374.362 225.853 375.934 224.844 377.601 223.917L384.992 219.622C385.252 219.456 385.467 219.224 385.616 218.947C385.765 218.671 385.843 218.36 385.843 218.044C385.843 217.728 385.765 217.417 385.616 217.141C385.467 216.864 385.252 216.632 384.992 216.466L319.733 175.925C319.461 175.761 319.152 175.674 318.837 175.674C318.522 175.674 318.212 175.761 317.94 175.925L301.854 185.865C301.495 186.133 301.245 186.53 301.154 186.978C301.063 187.426 301.136 187.893 301.361 188.288C301.585 188.683 301.943 188.977 302.366 189.112C302.789 189.248 303.245 189.215 303.646 189.021Z" fill="#D8D8D8"/>
<path d="M340.93 231.563L325.205 296.831C325.125 297.284 325.211 297.751 325.446 298.141C325.682 298.53 326.051 298.815 326.479 298.937C326.908 299.06 327.365 299.012 327.761 298.803C328.157 298.593 328.462 298.238 328.618 297.808L344.343 232.539C344.423 232.087 344.337 231.62 344.102 231.23C343.866 230.84 343.497 230.556 343.069 230.433C342.64 230.311 342.183 230.359 341.787 230.568C341.391 230.777 341.086 231.132 340.93 231.563Z" fill="#D8D8D8"/>
<path d="M318.554 218.483L303.096 282.32C303.015 282.772 303.101 283.239 303.337 283.629C303.573 284.019 303.941 284.303 304.37 284.426C304.798 284.548 305.255 284.5 305.651 284.291C306.047 284.082 306.353 283.727 306.508 283.296L321.966 219.459C322.047 219.007 321.961 218.54 321.725 218.15C321.489 217.76 321.12 217.476 320.692 217.354C320.264 217.231 319.806 217.279 319.411 217.488C319.015 217.697 318.709 218.052 318.554 218.483Z" fill="#D8D8D8"/>
<path d="M309.968 329.986C289.525 316.972 269.082 303.811 248.247 291.528C247.846 291.334 247.389 291.301 246.967 291.437C246.544 291.573 246.185 291.867 245.961 292.261C245.737 292.656 245.663 293.123 245.754 293.571C245.845 294.02 246.095 294.416 246.454 294.684C267.368 306.983 287.811 320.128 308.254 333.24C310.203 334.476 311.98 331.32 310.046 330.084L309.968 329.986Z" fill="#D8D8D8"/>
<path d="M365.933 243.602L331.432 223.396L308.757 210.121C306.335 208.706 301.916 204.704 298.992 204.574C296.884 204.476 294.007 207.014 292.293 208.006L274.476 218.288L225.823 246.367L193.885 264.799C191.904 265.954 193.681 269.11 195.678 267.955L268.343 225.999C278.533 220.126 289.211 214.725 299.07 208.267C300.375 207.421 297.12 207.226 298.598 208.364C300.415 209.566 302.3 210.652 304.244 211.618L324.906 223.722L364.219 246.693C364.62 246.887 365.076 246.919 365.499 246.783C365.922 246.648 366.28 246.354 366.505 245.959C366.729 245.564 366.803 245.097 366.712 244.649C366.62 244.201 366.371 243.804 366.012 243.536L365.933 243.602Z" fill="#D8D8D8"/>
<path d="M214.878 280.303L223.653 333.533C224.03 335.843 227.442 334.867 227.065 332.557L218.29 279.327C217.913 277.017 214.501 277.993 214.878 280.303Z" fill="#D8D8D8"/>
<path d="M221.608 249.881V306.397C221.65 306.853 221.854 307.276 222.181 307.584C222.509 307.892 222.935 308.063 223.377 308.063C223.82 308.063 224.246 307.892 224.573 307.584C224.901 307.276 225.105 306.853 225.146 306.397V249.881C225.105 249.425 224.901 249.002 224.573 248.694C224.246 248.386 223.82 248.215 223.377 248.215C222.935 248.215 222.509 248.386 222.181 248.694C221.854 249.002 221.65 249.425 221.608 249.881Z" fill="#D8D8D8"/>
<path d="M244.992 236.378L243.561 294.294C243.602 294.749 243.807 295.172 244.134 295.48C244.461 295.789 244.887 295.959 245.33 295.959C245.772 295.959 246.198 295.789 246.526 295.48C246.853 295.172 247.057 294.749 247.099 294.294L248.53 236.378C248.488 235.923 248.284 235.5 247.957 235.192C247.629 234.884 247.203 234.713 246.761 234.713C246.318 234.713 245.892 234.884 245.565 235.192C245.237 235.5 245.033 235.923 244.992 236.378Z" fill="#D8D8D8"/>
<path d="M267.589 223.347L260.732 284.321C260.465 286.664 264.003 286.631 264.271 284.321L271.127 223.347C271.394 221.005 267.856 221.037 267.589 223.347Z" fill="#D8D8D8"/>
<path d="M378.576 212.936C378.576 212.936 377.145 212.057 376.328 212.936C375.51 213.814 376.328 215.099 376.328 215.099L377.57 215.864C377.231 216.252 376.777 216.514 376.279 216.608C375.782 216.702 375.268 216.624 374.818 216.385C372.884 215.701 323.994 185.475 323.994 185.475C323.994 185.475 322.642 183.702 323.381 182.221C323.737 181.275 324.408 180.491 325.273 180.011C326.138 179.531 327.14 179.386 328.099 179.602C330.646 180.171 378.576 209.991 378.576 209.991C378.576 209.991 379.929 212.09 378.576 212.936Z" fill="#F14A24"/>
<path d="M309.134 180.806C326.227 182.026 325.331 210.626 326.432 222.502C326.715 225.479 322.28 226.487 321.982 223.478C321.022 213.586 321.651 200.198 316.352 191.494C314.779 188.794 312.751 186.174 309.402 185.93C308.372 185.893 307.346 186.076 306.389 186.468C305.431 186.86 304.561 187.452 303.835 188.208C302.262 189.607 301.539 195.138 301.287 196.781C300.399 202.912 300.299 209.137 300.989 215.295C301.287 218.272 296.853 219.28 296.538 216.271C295.674 206.9 293.897 179.716 309.134 180.806Z" fill="#F15A24"/>
<path d="M283.565 200.002L278.423 208.869L268.139 211.081L275.844 238.558L297.702 223.933" fill="#68E1FD"/>
<path opacity="0.28" d="M283.565 200.002L278.423 208.869L268.139 211.081L275.844 238.558L297.702 223.933" fill="#606060"/>
<path d="M336.26 230.148L283.565 200.002L285.279 244.773L325.551 248.759L336.26 230.148Z" fill="#68E1FD"/>
<path opacity="0.81" d="M336.26 230.148L283.565 200.002L285.279 244.773L325.551 248.759L336.26 230.148Z" fill="#606060"/>
<path d="M317.406 236.785L309.276 321.445L259.993 290.861L268.139 211.081L317.406 236.785Z" fill="#68E1FD"/>
<path d="M317.406 236.785L322.988 230.148H336.26V304.624L327.533 310.985L309.276 321.445L317.406 236.785Z" fill="#68E1FD"/>
<path opacity="0.28" d="M317.406 236.785L322.988 230.148H336.26V304.624L327.533 310.985L309.276 321.445L317.406 236.785Z" fill="#606060"/>
<path d="M287.119 194.959C304.259 195.122 305.014 223.738 306.854 235.5C307.31 238.461 302.939 239.73 302.467 236.753C300.894 226.992 300.8 213.538 294.997 205.176C292.623 201.743 288.44 198.864 284.351 201.109C280.672 203.126 280.625 207.616 280.263 211.374C279.73 217.548 279.989 223.768 281.033 229.871C281.505 232.832 277.134 234.101 276.646 231.124C275.231 221.851 271.866 194.813 287.119 194.959Z" fill="#F15A24"/>
<path d="M268.265 240.332C281.096 241.243 280.436 262.733 281.301 271.632C281.521 273.877 278.156 274.625 277.967 272.364C277.244 264.946 277.715 254.875 273.737 248.352C272.51 246.335 271.032 244.35 268.516 244.171C267.749 244.132 266.982 244.257 266.262 244.537C265.543 244.816 264.886 245.246 264.333 245.798C263.201 246.855 262.604 251.004 262.415 252.305C261.75 256.906 261.676 261.577 262.195 266.198C262.431 268.443 259.05 269.192 258.861 266.93C258.122 259.935 256.817 239.518 268.265 240.332Z" fill="#F15A24"/>
<path d="M249.064 254.745L245.196 261.399L237.475 263.075L243.262 283.703L259.679 272.722" fill="#68E1FD"/>
<path opacity="0.28" d="M249.064 254.745L245.196 261.399L237.475 263.075L243.262 283.703L259.679 272.722" fill="#606060"/>
<path d="M288.629 277.375L249.064 254.745L250.354 288.356L280.593 291.349L288.629 277.375Z" fill="#68E1FD"/>
<path opacity="0.81" d="M288.629 277.375L249.064 254.745L250.354 288.356L280.593 291.349L288.629 277.375Z" fill="#606060"/>
<path d="M274.476 282.369L268.359 345.945L231.358 322.975L237.475 263.075L274.476 282.369Z" fill="#68E1FD"/>
<path d="M274.476 282.369L278.659 277.375H288.629V333.305L282.071 338.088L268.359 345.946L274.476 282.369Z" fill="#68E1FD"/>
<path opacity="0.28" d="M274.476 282.369L278.659 277.375H288.629V333.305L282.071 338.088L268.359 345.946L274.476 282.369Z" fill="#606060"/>
<path d="M251.738 250.955C264.601 251.085 265.183 272.559 266.551 281.409C266.897 283.638 263.61 284.663 263.264 282.353C262.116 274.983 262.006 264.913 257.65 258.633C255.858 256.063 252.728 253.899 249.646 255.575C246.894 257.088 246.847 260.456 246.501 263.286C246.102 267.924 246.298 272.595 247.083 277.179C247.445 279.408 244.158 280.433 243.796 278.123C242.759 271.144 240.274 250.857 251.738 250.955Z" fill="#F15A24"/>
<path d="M364.156 243.602L291.396 286.29C281.102 292.331 270.807 298.372 260.512 304.413C258.94 305.307 262.179 305.226 261.031 304.413C259.286 303.274 257.446 302.233 255.669 301.159L234.707 288.437L195.662 264.815C195.357 264.645 195.011 264.57 194.666 264.599C194.321 264.627 193.991 264.759 193.717 264.978C193.442 265.196 193.235 265.492 193.12 265.83C193.004 266.168 192.986 266.533 193.067 266.882C195.442 283.605 196.904 300.785 200.238 317.313C201.04 321.315 202.644 321.608 206.135 323.69L230.855 338.446L257.053 354.08C260.198 355.918 265.151 360.587 268.847 360.05C272.29 359.578 277.401 355.04 280.342 353.331L306.335 338.12L351.938 311.44C352.297 311.173 352.546 310.776 352.638 310.328C352.729 309.88 352.655 309.413 352.431 309.018C352.207 308.623 351.848 308.329 351.425 308.193C351.003 308.058 350.546 308.09 350.145 308.284L313.978 329.433C299.243 338.055 283.282 345.702 269.271 355.593C267.148 357.089 266.897 356.178 268.689 356.813C266.811 355.897 265.016 354.808 263.327 353.559L239.362 339.259L214.202 324.227C211.45 322.601 208.73 320.795 205.915 319.347C205.146 318.99 204.414 318.554 203.729 318.045C202.424 316.923 204.421 319.672 203.886 318.257C202.723 315.133 202.801 310.676 202.314 307.373L199.955 290.763L196.417 265.905L193.822 267.971L228.134 288.795L250.684 302.477C253.074 303.924 257.666 308.203 260.638 308.219C262.792 308.219 265.953 305.372 267.699 304.347L284.666 294.424L334.31 265.287L365.902 246.758C366.261 246.49 366.51 246.093 366.601 245.645C366.693 245.197 366.619 244.73 366.395 244.335C366.17 243.94 365.812 243.646 365.389 243.511C364.966 243.375 364.51 243.407 364.109 243.602H364.156Z" fill="#D8D8D8"/>
<path d="M357.662 275.797C335.914 288.095 310.487 302.607 288.786 314.841C281.206 319.135 272.982 325.513 264.742 328.636C264.182 328.441 263.652 328.162 263.17 327.806C261.126 326.407 258.782 325.301 256.628 324.081L235.918 312.351C225.209 306.251 210.161 298.328 199.452 292.228C197.234 292.341 199.357 294.229 197.14 294.163C197.297 294.416 197.514 294.623 197.769 294.765L229.329 312.774L251.643 325.561C254.788 327.383 259.71 331.662 263.374 332.248C265.434 332.589 266.409 331.711 268.296 330.621L283.487 322.031L328.492 296.555L359.392 279.066C359.645 278.917 359.857 278.702 360.005 278.442C360.154 278.183 360.235 277.888 360.241 277.586C358.212 277.781 359.753 275.715 357.662 275.797Z" fill="#D8D8D8"/>
<path d="M237.113 293.61L244.897 346.255C245.243 348.581 248.656 347.589 248.31 345.279L240.526 292.569C240.18 290.243 236.767 291.235 237.113 293.545V293.61Z" fill="#D8D8D8"/>
<path d="M259.003 306.885L266.268 358.944C266.598 361.27 269.995 360.278 269.68 357.968L262.415 305.909C262.085 303.583 258.688 304.575 259.003 306.885Z" fill="#D8D8D8"/>
<path d="M288 290.292C288 308.61 288.849 326.895 288.896 345.213C288.938 345.669 289.142 346.092 289.469 346.4C289.796 346.708 290.223 346.879 290.665 346.879C291.107 346.879 291.534 346.708 291.861 346.4C292.188 346.092 292.393 345.669 292.434 345.213C292.434 326.895 291.585 308.61 291.538 290.292C291.496 289.836 291.292 289.413 290.965 289.105C290.638 288.797 290.211 288.626 289.769 288.626C289.326 288.626 288.9 288.797 288.573 289.105C288.246 289.413 288.041 289.836 288 290.292Z" fill="#D8D8D8"/>
<path d="M309.685 276.626C309.454 294.814 309.454 312.997 309.685 331.174C309.726 331.629 309.931 332.053 310.258 332.361C310.585 332.669 311.011 332.839 311.454 332.839C311.896 332.839 312.322 332.669 312.65 332.361C312.977 332.053 313.181 331.629 313.223 331.174C312.982 312.986 312.982 294.803 313.223 276.626C313.181 276.171 312.977 275.747 312.65 275.439C312.322 275.131 311.896 274.961 311.454 274.961C311.011 274.961 310.585 275.131 310.258 275.439C309.931 275.747 309.726 276.171 309.685 276.626Z" fill="#D8D8D8"/>
<path d="M334.719 261.822L327.564 320.648C327.281 322.975 330.819 322.958 331.102 320.648L338.257 261.822C338.54 259.496 335.002 259.512 334.719 261.822Z" fill="#D8D8D8"/>
<path d="M391.015 129.252C391.015 128.275 385.668 121.524 388.923 118.026C392.178 114.529 395.842 114.529 399.443 115.781C402.397 116.7 405.049 118.444 407.107 120.82C409.166 123.196 410.551 126.114 411.111 129.252C412.311 134.239 413.147 139.313 413.612 144.43L398.846 139.305" fill="#FF9739"/>
<path d="M406.111 174.217C406.111 174.217 396.078 169.89 396.927 156.664C397.592 148.525 401.096 140.915 406.787 135.255L413.612 144.43" fill="#FF9739"/>
<path d="M411.803 132.408C411.803 132.408 420.138 158.73 419.068 166.408C417.999 174.087 406.127 174.217 406.127 174.217" fill="#FF9739"/>
<path d="M431.963 237.143L413.612 227.821C413.459 214.827 411.564 201.917 407.982 189.461L392.54 186.516C391.759 195.167 391.507 203.861 391.785 212.545C391.87 219.05 392.806 225.513 394.569 231.758C396.141 236.639 398.17 242.219 402.856 244.773C406.929 246.985 412.102 247.766 416.521 249.035C417.936 249.442 431.994 252.793 431.994 253.476L431.963 237.143Z" fill="#DD842A"/>
<path d="M380.385 153.312C377.646 158.635 374.491 163.717 370.95 168.507C368.465 171.484 346.733 181.847 346.733 181.847C346.733 181.847 334.719 180.334 333.084 184.613C331.448 188.891 330.552 190.176 334.656 192.421C338.76 194.666 342.519 188.598 346.45 188.208C350.381 187.818 374.519 182.612 385.653 165.205C387.225 162.781 388.798 154.549 390.826 151.93C390.519 150.624 390.35 149.287 390.323 147.944C385.998 149.05 384.63 151.832 380.385 153.312Z" fill="#FFB288"/>
<path d="M411.599 145.943C410.645 144.82 409.592 143.79 408.454 142.868C402.604 140.07 393.169 137.711 391.597 137.874C390.024 138.036 384.505 140.623 383.404 144.755C382.303 148.887 381.69 157.591 381.69 167.531C381.69 178.154 378.545 192.877 378.545 192.877C378.545 192.877 388.593 199.954 397.824 199.01C404.35 198.343 409.083 197.936 410.954 195.756C411.111 180.773 410.467 160.389 411.599 145.943Z" fill="#AA2B2B"/>
<path d="M400.764 159.023C398.223 165.564 394.946 171.772 390.999 177.52C389.033 180.627 368.088 195.691 368.088 195.691C368.088 195.691 359.14 193.902 358.118 198.115C357.096 202.329 355.869 206.022 359.911 207.583C363.952 209.145 367.301 200.881 370.918 200.002C374.535 199.124 395.025 189.672 404.302 177.715C406.914 174.153 408.924 170.16 410.247 165.904C405.34 164.456 404.837 162.081 400.764 159.023Z" fill="#FFB288"/>
<path d="M392.619 168.621C392.619 168.621 400.717 144.576 403.406 143.405C404.337 142.98 405.347 142.772 406.364 142.794C407.382 142.817 408.382 143.069 409.295 143.534C410.208 144 411.011 144.666 411.648 145.487C412.285 146.308 412.741 147.263 412.983 148.285C414.382 154.11 409.146 172.688 407.746 174.738C406.347 176.788 392.619 168.621 392.619 168.621Z" fill="#AA2B2B"/>
<path d="M384.426 142.868L371.83 159.185L382.979 171.712L388.955 164.993" fill="#AA2B2B"/>
<path d="M403.988 133.79V142.51C402.807 143.386 401.391 143.856 399.939 143.856C398.486 143.856 397.07 143.386 395.89 142.51L393.955 133.14" fill="#E59770"/>
<path d="M392.414 122.647C392.507 122.624 392.604 122.624 392.697 122.647C394.289 123.196 395.934 123.561 397.604 123.737C399.27 123.737 400.937 123.623 402.588 123.737C403.689 123.737 404.381 126.486 404.365 129.805C405.073 129.365 405.938 129.17 406.504 130C406.749 130.465 406.824 131.005 406.714 131.523C406.604 132.04 406.317 132.498 405.906 132.814C405.361 133.309 404.699 133.645 403.988 133.79C403.748 135.485 402.997 137.057 401.842 138.284C400.687 139.511 399.187 140.33 397.556 140.623C396.301 140.838 395.015 140.539 393.97 139.789C392.924 139.038 392.203 137.896 391.958 136.605C391.005 133.105 390.738 129.443 391.172 125.835L391.282 124.062C391.328 123.794 391.43 123.539 391.583 123.317C391.735 123.095 391.933 122.91 392.163 122.777C392.236 122.714 392.322 122.67 392.414 122.647Z" fill="#FFB288"/>
<path d="M393.169 121.378C393.169 121.378 399.255 130.569 403.894 129.853C408.532 129.138 403.406 121.98 403.406 121.98" fill="#FF9739"/>
</g>
<defs>
<linearGradient id="paint0_linear_4_4" x1="243.734" y1="401.957" x2="341.976" y2="290.07" gradientUnits="userSpaceOnUse">
<stop stop-color="#4444A5"/>
<stop offset="1"/>
</linearGradient>
<linearGradient id="paint1_linear_4_4" x1="380.149" y1="307.113" x2="466.816" y2="208.406" gradientUnits="userSpaceOnUse">
<stop stop-color="#4444A5"/>
<stop offset="1"/>
</linearGradient>
<linearGradient id="paint2_linear_4_4" x1="39.5276" y1="298.393" x2="93.6536" y2="267.293" gradientUnits="userSpaceOnUse">
<stop stop-color="#4444A5"/>
<stop offset="1"/>
</linearGradient>
<clipPath id="clip0_4_4">
<rect width="584" height="465" fill="white"/>
</clipPath>
</defs>
</svg>
