<svg width="157" height="159" viewBox="0 0 157 159" fill="none" xmlns="http://www.w3.org/2000/svg">
<path d="M129.384 45.2673H36.9578C34.1744 45.2673 31.9181 47.5524 31.9181 50.3712V108.629C31.9181 111.448 34.1744 113.733 36.9578 113.733H129.384C132.167 113.733 134.423 111.448 134.423 108.629V50.3712C134.423 47.5524 132.167 45.2673 129.384 45.2673Z" fill="#014551"/>
<path d="M78.9553 97.5306V114.719H22.5766V97.5306C22.5694 94.6421 23.3519 91.8079 24.8374 89.3421C26.199 87.0403 28.1305 85.1385 30.4409 83.825C32.7512 82.5114 35.3603 81.8318 38.0097 81.8532H63.4751C64.3966 81.8364 65.3173 81.9163 66.2226 82.0917C68.3798 82.4796 70.4308 83.3281 72.2391 84.581C74.0474 85.8339 75.5715 87.4623 76.7102 89.358C78.1927 91.8185 78.9701 94.6482 78.9553 97.5306Z" fill="#AA2B2B"/>
<path d="M60.7904 81.8532C60.6879 84.4762 59.5869 86.9572 57.7181 88.7763C55.8494 90.5954 53.358 91.6114 50.7659 91.6114C48.1739 91.6114 45.6825 90.5954 43.8137 88.7763C41.945 86.9572 40.844 84.4762 40.7415 81.8532H60.7904Z" fill="#00F318"/>
<path d="M50.7581 77.6079C58.0676 77.6079 63.9932 71.6069 63.9932 64.2042C63.9932 56.8015 58.0676 50.8005 50.7581 50.8005C43.4485 50.8005 37.523 56.8015 37.523 64.2042C37.523 71.6069 43.4485 77.6079 50.7581 77.6079Z" fill="#AA2B2B"/>
<path d="M125.019 71.9475H86.4913V79.5795H125.019V71.9475Z" fill="#07F03B"/>
<path d="M120.356 83.5386H86.4913V91.1706H120.356V83.5386Z" fill="#07F03B"/>
<path d="M115.348 95.1138H86.4913V102.746H115.348V95.1138Z" fill="#00F318"/>
<path d="M115.348 95.1138H86.4913V102.746H115.348V95.1138Z" fill="#07F03B"/>
</svg>
