<svg width="87" height="85" viewBox="0 0 87 85" fill="none" xmlns="http://www.w3.org/2000/svg">
<path opacity="0.3" d="M43.1237 70.3252C63.3763 70.3252 79.7942 69.1904 79.7942 67.7905C79.7942 66.3907 63.3763 65.2559 43.1237 65.2559C22.8712 65.2559 6.45325 66.3907 6.45325 67.7905C6.45325 69.1904 22.8712 70.3252 43.1237 70.3252Z" fill="#E6E6E6"/>
<path d="M42.8714 39.6072C42.8714 39.6072 44.1155 38.1975 44.7419 39.3252C45.3683 40.453 44.5396 41.1917 43.4521 41.2678C42.3646 41.344 42.8714 39.6072 42.8714 39.6072Z" fill="#F4A28C"/>
<path opacity="0.08" d="M42.8714 39.6072C42.8714 39.6072 44.1155 38.1975 44.7419 39.3252C45.3683 40.453 44.5396 41.1917 43.4521 41.2678C42.3646 41.344 42.8714 39.6072 42.8714 39.6072Z" fill="black"/>
<path d="M31.1786 33.4778C31.1786 33.4778 32.3836 40.0922 35.7026 40.2924C39.0217 40.4926 42.7366 38.3385 42.7366 38.3385L43.3891 40.9888L34.2954 44.1917C34.2954 44.1917 28.5208 40.3403 28.4468 39.8892C28.3729 39.4381 31.1786 33.4778 31.1786 33.4778Z" fill="#68E1FD"/>
<path opacity="0.08" d="M31.1786 33.4778C31.1786 33.4778 32.3836 40.0922 35.7026 40.2924C39.0217 40.4926 42.7366 38.3385 42.7366 38.3385L43.3891 40.9888L34.2954 44.1917C34.2954 44.1917 28.5208 40.3403 28.4468 39.8892C28.3729 39.4381 31.1786 33.4778 31.1786 33.4778Z" fill="black"/>
<path d="M67.0922 49.7461H58.2204V56.3182H67.0922V49.7461Z" fill="#C1C1C1"/>
<path d="M60.726 44.1775H50.3034V56.318H60.726V44.1775Z" fill="#FFD200"/>
<path d="M44.7419 40.9832H47.0387C47.3872 40.9828 47.7241 41.1445 47.9883 41.4389C48.2525 41.7333 48.4265 42.1408 48.4786 42.5874L50.0946 56.3181H66.8921C67.3034 56.3179 67.7026 56.1384 68.0257 55.8086C68.3487 55.4788 68.5769 55.0177 68.6735 54.4996L71.1834 41.0903" stroke="#24285B" stroke-width="2.03" stroke-linecap="round" stroke-linejoin="round"/>
<path d="M30.6175 65.2275C30.6175 65.2275 31.2961 65.9324 31.9595 65.5095C32.6228 65.0866 33.1666 65.7463 32.6968 66.4061C32.227 67.0658 30.3173 67.2801 30.3173 67.2801L29.58 65.7858L30.6175 65.2275Z" fill="#68E1FD"/>
<path d="M13.1696 60.2765C13.1696 60.2765 12.2996 60.4203 12.0821 61.3394C11.8646 62.2586 11.112 62.3009 11.0729 61.4071C11.0337 60.5133 12.2365 58.5876 12.2365 58.5876L13.5807 58.9344L13.1696 60.2765Z" fill="#68E1FD"/>
<path d="M27.1984 18.3486L25.715 22.9274L27.7791 24.4302L28.0858 20.3222L27.1984 18.3486Z" fill="#F4A28C"/>
<path opacity="0.31" d="M28.0575 21.2274C27.7907 21.0436 27.5713 20.7622 27.4268 20.4182C27.4268 20.4182 27.2724 21.4135 27.9227 22.6484L28.0575 21.2274Z" fill="#CE8172"/>
<path d="M29.0645 18.1287C29.0645 18.1287 29.282 19.7922 29.1385 20.9312C29.1253 21.0424 29.0951 21.1491 29.0498 21.245C29.0044 21.3409 28.9447 21.4241 28.8742 21.4897C28.8037 21.5554 28.7239 21.6021 28.6393 21.6272C28.5547 21.6524 28.4671 21.6554 28.3816 21.6361C28.1052 21.5963 27.8436 21.4542 27.6279 21.2267C27.4123 20.9992 27.2518 20.6959 27.1657 20.3532L26.6829 18.9238C26.6092 18.6249 26.609 18.3038 26.6823 18.0048C26.7555 17.7058 26.8986 17.4437 27.0918 17.2547C27.7813 16.4849 28.9688 17.1052 29.0645 18.1287Z" fill="#F4A28C"/>
<path d="M28.747 18.233C28.3466 18.2921 27.9424 18.2921 27.542 18.233C27.6725 18.4491 27.7514 18.7099 27.7692 18.9833C27.787 19.2568 27.7428 19.531 27.6421 19.7724C27.5464 20.0071 27.391 20.1915 27.2022 20.2944C27.0135 20.3972 26.803 20.412 26.6068 20.3363L26.4893 18.1737C26.4639 17.8647 26.5037 17.5525 26.6045 17.2705C26.7052 16.9884 26.8631 16.7471 27.0613 16.5723C27.2311 16.4187 27.4092 16.2811 27.5942 16.1607C28.0597 15.859 28.7883 16.1973 29.1928 15.7321C29.2334 15.6853 29.2827 15.653 29.3358 15.6383C29.389 15.6236 29.4441 15.6271 29.4959 15.6485C29.5477 15.6698 29.5943 15.7082 29.6312 15.76C29.668 15.8117 29.6939 15.875 29.7061 15.9436C29.8236 16.592 29.7975 17.6352 29.1363 18.0694C29.015 18.1534 28.8832 18.2087 28.747 18.233Z" fill="#24285B"/>
<path d="M27.7769 19.719C27.7769 19.719 27.7269 19.0705 27.3528 19.1551C26.9787 19.2397 27.0505 20.1813 27.5703 20.2152L27.7769 19.719Z" fill="#F4A28C"/>
<path d="M29.1603 19.186L29.5648 19.795C29.5856 19.8307 29.5995 19.8723 29.6054 19.9163C29.6113 19.9603 29.6091 20.0055 29.5989 20.0482C29.5887 20.0909 29.5708 20.1298 29.5468 20.1618C29.5227 20.1937 29.4931 20.2178 29.4604 20.232L28.9732 20.4069L29.1603 19.186Z" fill="#F4A28C"/>
<path d="M29.0623 25.0504C28.9384 24.9292 28.8187 24.8023 28.7013 24.6698C27.9944 23.869 25.4388 21.3033 22.8418 22.6962C19.7794 24.354 21.1584 26.5278 23.7923 26.8097C31.2787 27.6245 29.667 25.6284 29.0623 25.0504Z" fill="#68E1FD"/>
<path opacity="0.44" d="M29.0623 25.0504C28.9384 24.9292 28.8187 24.8023 28.7013 24.6698C27.9944 23.869 25.4388 21.3033 22.8418 22.6962C19.7794 24.354 21.1584 26.5278 23.7923 26.8097C31.2787 27.6245 29.667 25.6284 29.0623 25.0504Z" fill="white"/>
<path d="M27.7965 24.8334C24.969 23.4518 21.7761 24.9179 20.0883 28.1744C19.2814 29.7307 18.5658 31.6508 18.3962 33.7513C17.9742 39.0631 17.4 43.7434 17.4 43.7434L25.3714 48.2545C25.3714 48.2545 31.9943 42.2519 31.7137 35.13C31.5071 30.0944 30.8133 26.3023 27.7965 24.8334Z" fill="#68E1FD"/>
<path opacity="0.08" d="M24.3839 27.7458C24.3839 27.7458 21.3542 32.1273 22.6918 39.8864C24.0294 47.6455 20.5342 45.5253 20.5342 45.5253L25.3649 48.2658C25.3649 48.2658 27.7726 45.748 28.3751 44.7584L28.9775 43.7688L24.3839 27.7458Z" fill="black"/>
<path d="M27.3572 26.0794C27.3572 26.0794 29.9672 26.8999 30.2804 31.1544C30.5936 35.409 31.9725 42.3053 35.8875 41.2791C39.8025 40.2528 43.065 39.5677 43.065 39.5677L43.6979 42.3053C43.6979 42.3053 32.7272 50.5889 27.3593 43.6756C21.9914 36.7623 22.6896 24.7092 27.3572 26.0794Z" fill="#68E1FD"/>
<path opacity="0.44" d="M27.3572 26.0794C27.3572 26.0794 29.9672 26.8999 30.2804 31.1544C30.5936 35.409 31.9725 42.3053 35.8875 41.2791C39.8025 40.2528 43.065 39.5677 43.065 39.5677L43.6979 42.3053C43.6979 42.3053 32.7272 50.5889 27.3593 43.6756C21.9914 36.7623 22.6896 24.7092 27.3572 26.0794Z" fill="white"/>
<path d="M17.4 43.7434C17.4 43.7434 16.0798 46.9604 17.4 48.2545C18.7202 49.5486 27.6529 59.3462 29.3625 65.9183L31.1808 64.9597C31.1808 64.9597 29.6431 55.5794 25.367 48.2545L17.4 43.7434Z" fill="#24285B"/>
<path d="M17.4 48.2628C17.4 48.2628 24.2121 60.5161 13.1218 57.9843V60.5218C13.1218 60.5218 24.3121 64.4267 23.9968 55.4468C23.6814 46.4668 17.4 48.2628 17.4 48.2628Z" fill="#24285B"/>
<path d="M43.2629 40.4389C43.2629 40.4389 44.9464 39.1674 45.3683 40.4389C45.7903 41.7105 43.6958 42.3054 43.6958 42.3054L43.2629 40.4389Z" fill="#F4A28C"/>
<path d="M60.726 38.3328H55.1036V44.1747H60.726V38.3328Z" fill="#E6E6E6"/>
<path opacity="0.43" d="M67.0922 41.53H60.5237V49.7459H67.0922V41.53Z" fill="#E6E6E6"/>
<path d="M49.7901 53.7412L50.6601 60.7334C50.7479 61.4359 51.0257 62.075 51.4437 62.5363C51.8617 62.9976 52.3927 63.251 52.9417 63.2512H67.8752" stroke="#24285B" stroke-width="2.03" stroke-linecap="round" stroke-linejoin="round"/>
<path d="M53.7095 67.3731C54.3942 67.3731 54.9492 66.6536 54.9492 65.766C54.9492 64.8785 54.3942 64.1589 53.7095 64.1589C53.0248 64.1589 52.4697 64.8785 52.4697 65.766C52.4697 66.6536 53.0248 67.3731 53.7095 67.3731Z" fill="#68E1FD"/>
<path d="M65.8525 67.3731C66.5372 67.3731 67.0922 66.6536 67.0922 65.766C67.0922 64.8785 66.5372 64.1589 65.8525 64.1589C65.1678 64.1589 64.6127 64.8785 64.6127 65.766C64.6127 66.6536 65.1678 67.3731 65.8525 67.3731Z" fill="#68E1FD"/>
<path opacity="0.61" d="M56.4173 44.1775H54.3619V48.1191H56.4173V44.1775Z" fill="white"/>
</svg>
