<svg width="200" height="130" viewBox="0 0 200 130" fill="none" xmlns="http://www.w3.org/2000/svg">
<path d="M135.615 16.6191H64.385C61.2922 16.6191 58.785 19.1141 58.785 22.1917V75.116C58.785 78.1936 61.2922 80.6885 64.385 80.6885H135.615C138.708 80.6885 141.215 78.1936 141.215 75.116V22.1917C141.215 19.1141 138.708 16.6191 135.615 16.6191Z" fill="#68E1FD"/>
<path d="M135.615 81.1861H64.385C62.768 81.1834 61.218 80.5431 60.0746 79.4053C58.9312 78.2675 58.2877 76.725 58.285 75.116V22.1917C58.2864 20.5822 58.9295 19.039 60.0731 17.9009C61.2168 16.7629 62.7676 16.1229 64.385 16.1216H135.615C137.232 16.1229 138.783 16.7629 139.927 17.9009C141.071 19.039 141.714 20.5822 141.715 22.1917V75.116C141.712 76.725 141.069 78.2675 139.925 79.4053C138.782 80.5431 137.232 81.1834 135.615 81.1861ZM64.385 17.1167C63.0324 17.1167 61.7352 17.6514 60.7788 18.6031C59.8224 19.5549 59.285 20.8457 59.285 22.1917V75.116C59.2864 76.4615 59.8241 77.7516 60.7803 78.7031C61.7364 79.6545 63.0328 80.1897 64.385 80.191H135.615C136.967 80.1897 138.264 79.6545 139.22 78.7031C140.176 77.7516 140.714 76.4615 140.715 75.116V22.1917C140.715 20.8457 140.178 19.5549 139.221 18.6031C138.265 17.6514 136.968 17.1167 135.615 17.1167H64.385Z" fill="#093F68"/>
<path d="M141.215 22.1917H58.785V69.7524H141.215V22.1917Z" fill="white"/>
<path d="M141.215 70.2449H58.785C58.6524 70.2449 58.5252 70.1925 58.4315 70.0992C58.3377 70.0059 58.285 69.8793 58.285 69.7474V22.1916C58.285 22.0597 58.3377 21.9331 58.4315 21.8398C58.5252 21.7465 58.6524 21.6941 58.785 21.6941H141.215C141.348 21.6941 141.475 21.7465 141.569 21.8398C141.662 21.9331 141.715 22.0597 141.715 22.1916V69.7474C141.715 69.8793 141.662 70.0059 141.569 70.0992C141.475 70.1925 141.348 70.2449 141.215 70.2449ZM59.285 69.2498H140.715V22.6892H59.285V69.2498Z" fill="#093F68"/>
<path d="M89.885 45.0342H66.545C65.6199 45.0342 64.87 45.7804 64.87 46.701V64.2396C64.87 65.1601 65.6199 65.9064 66.545 65.9064H89.885C90.8101 65.9064 91.56 65.1601 91.56 64.2396V46.701C91.56 45.7804 90.8101 45.0342 89.885 45.0342Z" fill="white"/>
<path d="M89.885 66.4039H66.545C65.9681 66.4039 65.4149 66.1759 65.007 65.77C64.5991 65.3641 64.37 64.8136 64.37 64.2396V46.7059C64.37 46.1315 64.599 45.5804 65.0067 45.1738C65.4145 44.7671 65.9677 44.5379 66.545 44.5366H89.885C90.4623 44.5379 91.0155 44.7671 91.4233 45.1738C91.831 45.5804 92.06 46.1315 92.06 46.7059V64.2396C92.06 64.8136 91.8308 65.3641 91.423 65.77C91.0151 66.1759 90.4618 66.4039 89.885 66.4039ZM66.545 45.5466C66.2329 45.548 65.934 45.6723 65.7138 45.8923C65.4936 46.1124 65.37 46.4103 65.37 46.7209V64.2545C65.37 64.5646 65.4938 64.862 65.7141 65.0813C65.9345 65.3005 66.2334 65.4237 66.545 65.4237H89.885C90.1966 65.4237 90.4955 65.3005 90.7158 65.0813C90.9362 64.862 91.06 64.5646 91.06 64.2545V46.7059C91.06 46.3954 90.9364 46.0975 90.7161 45.8774C90.4959 45.6573 90.1971 45.533 89.885 45.5317L66.545 45.5466Z" fill="#DFEAEF"/>
<path d="M115.04 89.4752H84.96L89.31 80.6885H110.69L115.04 89.4752Z" fill="#093F68"/>
<path d="M115.04 89.9728H84.96C84.875 89.9729 84.7914 89.9516 84.7171 89.9106C84.6427 89.8697 84.58 89.8106 84.535 89.7389C84.4911 89.6633 84.468 89.5775 84.468 89.4902C84.468 89.4028 84.4911 89.317 84.535 89.2414L88.885 80.4497C88.9269 80.3669 88.9913 80.2974 89.0708 80.249C89.1503 80.2007 89.2418 80.1754 89.335 80.176H110.715C110.808 80.1754 110.9 80.2007 110.979 80.249C111.059 80.2974 111.123 80.3669 111.165 80.4497L115.515 89.2414C115.559 89.317 115.582 89.4028 115.582 89.4902C115.582 89.5775 115.559 89.6633 115.515 89.7389C115.466 89.8183 115.395 89.8823 115.311 89.9236C115.227 89.965 115.133 89.982 115.04 89.9728ZM85.765 88.9777H114.235L110.38 81.1861H89.62L85.765 88.9777Z" fill="#093F68"/>
<path d="M120.035 89.4753H79.965C78.9543 89.4753 78.135 90.2906 78.135 91.2964V91.5601C78.135 92.5658 78.9543 93.3811 79.965 93.3811H120.035C121.046 93.3811 121.865 92.5658 121.865 91.5601V91.2964C121.865 90.2906 121.046 89.4753 120.035 89.4753Z" fill="#68E1FD"/>
<path d="M120.035 93.8784H79.965C79.347 93.8784 78.7544 93.6341 78.3175 93.1993C77.8805 92.7645 77.635 92.1748 77.635 91.5598V91.321C77.635 90.7061 77.8805 90.1164 78.3175 89.6815C78.7544 89.2467 79.347 89.0024 79.965 89.0024H120.035C120.653 89.0024 121.246 89.2467 121.683 89.6815C122.12 90.1164 122.365 90.7061 122.365 91.321V91.5847C122.358 92.1953 122.11 92.7787 121.674 93.2081C121.238 93.6376 120.649 93.8785 120.035 93.8784ZM79.965 89.9727C79.6123 89.9727 79.274 90.1121 79.0246 90.3603C78.7751 90.6085 78.635 90.9451 78.635 91.2961V91.5598C78.635 91.9109 78.7751 92.2475 79.0246 92.4957C79.274 92.7439 79.6123 92.8833 79.965 92.8833H120.035C120.388 92.8833 120.726 92.7439 120.975 92.4957C121.225 92.2475 121.365 91.9109 121.365 91.5598V91.321C121.365 90.97 121.225 90.6334 120.975 90.3852C120.726 90.137 120.388 89.9975 120.035 89.9975L79.965 89.9727Z" fill="#093F68"/>
<path d="M66.165 33.8144H52.63L58.915 22.0623H70.655L66.165 33.8144Z" fill="#F56132"/>
<path d="M66.165 34.3119H52.63C52.5438 34.3124 52.4588 34.2907 52.3834 34.2488C52.3081 34.207 52.2449 34.1464 52.2 34.0731C52.1562 33.9974 52.1331 33.9116 52.1331 33.8243C52.1331 33.737 52.1562 33.6512 52.2 33.5755L58.5 21.8284C58.5426 21.7489 58.6059 21.6825 58.6834 21.636C58.7609 21.5896 58.8496 21.5649 58.94 21.5647H70.68C70.7607 21.5648 70.84 21.5844 70.9114 21.6216C70.9828 21.6589 71.0441 21.7127 71.09 21.7786C71.1356 21.8449 71.1645 21.9211 71.174 22.0008C71.1836 22.0805 71.1737 22.1613 71.145 22.2364L66.645 33.9935C66.6079 34.0894 66.5418 34.1715 66.4558 34.2285C66.3699 34.2855 66.2683 34.3147 66.165 34.3119ZM53.46 33.3168H65.82L69.93 22.5598H59.215L53.46 33.3168Z" fill="#093F68"/>
<path d="M52.63 33.8145H66.165V35.0235C66.165 35.9075 65.99 36.7829 65.6501 37.5997C65.3101 38.4164 64.8118 39.1585 64.1836 39.7836C63.5554 40.4087 62.8096 40.9046 61.9889 41.2429C61.1681 41.5812 60.2884 41.7553 59.4 41.7553C58.5116 41.7553 57.6319 41.5812 56.8111 41.2429C55.9904 40.9046 55.2446 40.4087 54.6164 39.7836C53.9882 39.1585 53.4899 38.4164 53.15 37.5997C52.81 36.7829 52.635 35.9075 52.635 35.0235V33.8145H52.63Z" fill="#F56132"/>
<path d="M59.395 42.2579C57.469 42.2552 55.6227 41.4927 54.2608 40.1375C52.8989 38.7823 52.1327 36.945 52.13 35.0285V33.8144C52.13 33.6825 52.1827 33.5559 52.2765 33.4626C52.3702 33.3693 52.4974 33.3169 52.63 33.3169H66.165C66.2976 33.3169 66.4248 33.3693 66.5186 33.4626C66.6123 33.5559 66.665 33.6825 66.665 33.8144V35.0285C66.6624 36.9459 65.8954 38.7839 64.5324 40.1393C63.1695 41.4946 61.3219 42.2565 59.395 42.2579ZM53.13 34.2971V35.0135C53.1761 36.6371 53.8566 38.1789 55.027 39.311C56.1973 40.4432 57.7653 41.0766 59.3975 41.0766C61.0298 41.0766 62.5977 40.4432 63.768 39.311C64.9384 38.1789 65.6189 36.6371 65.665 35.0135V34.2971H53.13Z" fill="#093F68"/>
<path d="M79.7 33.8144H66.165L70.655 22.0623H82.39L79.7 33.8144Z" fill="white"/>
<path d="M79.7 34.3119H66.165C66.0844 34.3118 66.005 34.2923 65.9336 34.255C65.8622 34.2178 65.801 34.1639 65.755 34.098C65.7086 34.0322 65.6789 33.9562 65.6684 33.8764C65.658 33.7967 65.6671 33.7157 65.695 33.6402L70.195 21.8831C70.2316 21.7888 70.2961 21.7079 70.3801 21.651C70.4641 21.5941 70.5634 21.564 70.665 21.5647H82.4C82.476 21.5643 82.551 21.5811 82.6194 21.6139C82.6879 21.6466 82.7479 21.6945 82.795 21.7538C82.8411 21.812 82.8736 21.8797 82.89 21.952C82.9065 22.0244 82.9065 22.0994 82.89 22.1717L80.195 33.9288C80.1688 34.0393 80.1054 34.1375 80.0154 34.2072C79.9253 34.2769 79.8141 34.3138 79.7 34.3119ZM66.89 33.3168H79.3L81.765 22.5598H71L66.89 33.3168Z" fill="#093F68"/>
<path d="M66.165 33.8145H79.7V35.0235C79.7 35.9075 79.525 36.7829 79.185 37.5997C78.845 38.4164 78.3467 39.1585 77.7186 39.7836C77.0904 40.4087 76.3446 40.9046 75.5238 41.2429C74.7031 41.5812 73.8234 41.7553 72.935 41.7553C72.0466 41.7553 71.1669 41.5812 70.3461 41.2429C69.5254 40.9046 68.7796 40.4087 68.1514 39.7836C67.5232 39.1585 67.0249 38.4164 66.6849 37.5997C66.345 36.7829 66.17 35.9075 66.17 35.0235V33.8145H66.165Z" fill="white"/>
<path d="M72.93 42.2579C71.004 42.2552 69.1576 41.4927 67.7958 40.1375C66.4339 38.7823 65.6676 36.945 65.665 35.0285V33.8144C65.665 33.6825 65.7177 33.5559 65.8114 33.4626C65.9052 33.3693 66.0324 33.3169 66.165 33.3169H79.7C79.8326 33.3169 79.9598 33.3693 80.0535 33.4626C80.1473 33.5559 80.2 33.6825 80.2 33.8144V35.0285C80.1973 36.9459 79.4304 38.7839 78.0674 40.1393C76.7045 41.4946 74.8568 42.2565 72.93 42.2579ZM66.665 34.2971V35.0135C66.7111 36.6371 67.3916 38.1789 68.562 39.311C69.7323 40.4432 71.3002 41.0766 72.9325 41.0766C74.5647 41.0766 76.1326 40.4432 77.303 39.311C78.4734 38.1789 79.1539 36.6371 79.2 35.0135V34.2971H66.665Z" fill="#093F68"/>
<path d="M93.235 33.8144H79.7L82.39 22.0623H94.13L93.235 33.8144Z" fill="#F56132"/>
<path d="M93.235 34.312H79.7C79.6253 34.3123 79.5515 34.2959 79.484 34.264C79.4165 34.2322 79.3571 34.1857 79.31 34.128C79.2623 34.0696 79.2285 34.0012 79.2112 33.9279C79.1938 33.8547 79.1934 33.7785 79.21 33.705L81.905 21.9529C81.9304 21.8407 81.9941 21.7407 82.0853 21.6699C82.1764 21.5992 82.2894 21.562 82.405 21.5648H94.145C94.2144 21.5644 94.2831 21.5783 94.3468 21.6057C94.4105 21.6331 94.4678 21.6734 94.515 21.7241C94.5618 21.7747 94.5975 21.8345 94.6198 21.8996C94.6422 21.9647 94.6508 22.0336 94.645 22.1022L93.745 33.8543C93.7348 33.981 93.6763 34.099 93.5815 34.1841C93.4866 34.2692 93.3627 34.315 93.235 34.312ZM80.325 33.317H92.77L93.59 22.5599H82.79L80.325 33.317Z" fill="#093F68"/>
<path d="M79.7 33.8145H93.235V35.0235C93.235 35.9075 93.06 36.7829 92.7201 37.5997C92.3801 38.4164 91.8818 39.1585 91.2536 39.7836C90.6254 40.4087 89.8796 40.9046 89.0589 41.2429C88.2381 41.5812 87.3584 41.7553 86.47 41.7553C85.5816 41.7553 84.7019 41.5812 83.8812 41.2429C83.0604 40.9046 82.3146 40.4087 81.6864 39.7836C81.0583 39.1585 80.5599 38.4164 80.22 37.5997C79.88 36.7829 79.705 35.9075 79.705 35.0235V33.8145H79.7Z" fill="#F56132"/>
<path d="M86.465 42.2579C84.539 42.2552 82.6927 41.4927 81.3308 40.1375C79.9689 38.7823 79.2027 36.945 79.2 35.0285V33.8144C79.2 33.6825 79.2527 33.5559 79.3465 33.4626C79.4402 33.3693 79.5674 33.3169 79.7 33.3169H93.235C93.3676 33.3169 93.4948 33.3693 93.5886 33.4626C93.6823 33.5559 93.735 33.6825 93.735 33.8144V35.0285C93.7324 36.9459 92.9654 38.7839 91.6025 40.1393C90.2395 41.4946 88.3919 42.2565 86.465 42.2579ZM80.2 34.2971V35.0135C80.2461 36.6371 80.9266 38.1789 82.097 39.311C83.2674 40.4432 84.8353 41.0766 86.4675 41.0766C88.0998 41.0766 89.6677 40.4432 90.838 39.311C92.0084 38.1789 92.6889 36.6371 92.735 35.0135V34.2971H80.2Z" fill="#093F68"/>
<path d="M106.765 33.8144H93.235L94.13 22.0623H105.87L106.765 33.8144Z" fill="white"/>
<path d="M106.765 34.3119H93.235C93.1656 34.3124 93.0969 34.2985 93.0332 34.271C92.9695 34.2436 92.9122 34.2033 92.865 34.1527C92.8189 34.1026 92.7836 34.0437 92.7612 33.9795C92.7389 33.9153 92.73 33.8473 92.735 33.7795L93.63 22.0224C93.6401 21.8975 93.6972 21.7809 93.7899 21.6961C93.8826 21.6112 94.0041 21.5643 94.13 21.5647H105.87C105.996 21.5643 106.117 21.6112 106.21 21.6961C106.303 21.7809 106.36 21.8975 106.37 22.0224L107.265 33.7795C107.27 33.8473 107.261 33.9153 107.239 33.9795C107.216 34.0437 107.181 34.1026 107.135 34.1527C107.088 34.2033 107.031 34.2436 106.967 34.271C106.903 34.2985 106.834 34.3124 106.765 34.3119ZM93.765 33.3168H106.225L105.405 22.5598H94.595L93.765 33.3168Z" fill="#093F68"/>
<path d="M93.235 33.8145H106.77V35.0235C106.771 35.9084 106.596 36.7847 106.256 37.6023C105.916 38.42 105.417 39.1629 104.789 39.7886C104.16 40.4143 103.413 40.9105 102.592 41.2488C101.77 41.5872 100.889 41.761 100 41.7603C99.1116 41.7603 98.2319 41.5862 97.4111 41.2479C96.5904 40.9096 95.8446 40.4137 95.2164 39.7886C94.5882 39.1635 94.0899 38.4214 93.7499 37.6046C93.41 36.7879 93.235 35.9125 93.235 35.0285V33.8194V33.8145Z" fill="white"/>
<path d="M100 42.2579C98.074 42.2552 96.2277 41.4927 94.8658 40.1375C93.5039 38.7823 92.7376 36.945 92.735 35.0285V33.8144C92.735 33.6825 92.7877 33.5559 92.8814 33.4626C92.9752 33.3693 93.1024 33.3169 93.235 33.3169H106.765C106.898 33.3169 107.025 33.3693 107.119 33.4626C107.212 33.5559 107.265 33.6825 107.265 33.8144V35.0285C107.262 36.945 106.496 38.7823 105.134 40.1375C103.772 41.4927 101.926 42.2552 100 42.2579ZM93.735 34.2971V35.0135C93.735 35.8322 93.897 36.6429 94.2119 37.3993C94.5267 38.1557 94.9882 38.8429 95.57 39.4218C96.1517 40.0008 96.8424 40.46 97.6025 40.7733C98.3626 41.0866 99.1773 41.2478 100 41.2478C100.823 41.2478 101.637 41.0866 102.397 40.7733C103.158 40.46 103.848 40.0008 104.43 39.4218C105.012 38.8429 105.473 38.1557 105.788 37.3993C106.103 36.6429 106.265 35.8322 106.265 35.0135V34.2971H93.735Z" fill="#093F68"/>
<path d="M120.3 33.8144H106.765L105.87 22.0623H117.61L120.3 33.8144Z" fill="#F56132"/>
<path d="M120.3 34.312H106.765C106.639 34.3125 106.518 34.2655 106.425 34.1807C106.332 34.0958 106.275 33.9792 106.265 33.8543L105.365 22.1022C105.359 22.0336 105.368 21.9647 105.39 21.8996C105.413 21.8345 105.448 21.7747 105.495 21.7241C105.542 21.6734 105.599 21.6331 105.663 21.6057C105.727 21.5783 105.796 21.5644 105.865 21.5648H117.605C117.721 21.562 117.834 21.5992 117.925 21.6699C118.016 21.7407 118.08 21.8407 118.105 21.9529L120.8 33.705C120.817 33.7785 120.816 33.8547 120.799 33.9279C120.782 34.0012 120.748 34.0696 120.7 34.128C120.652 34.187 120.591 34.2343 120.522 34.2662C120.452 34.2981 120.376 34.3138 120.3 34.312ZM107.23 33.317H119.675L117.21 22.5599H106.41L107.23 33.317Z" fill="#093F68"/>
<path d="M106.765 33.8145H120.3V35.0235C120.3 35.9075 120.125 36.7829 119.785 37.5997C119.445 38.4164 118.947 39.1585 118.319 39.7836C117.69 40.4087 116.945 40.9046 116.124 41.2429C115.303 41.5812 114.423 41.7553 113.535 41.7553C112.647 41.7553 111.767 41.5812 110.946 41.2429C110.125 40.9046 109.38 40.4087 108.751 39.7836C108.123 39.1585 107.625 38.4164 107.285 37.5997C106.945 36.7829 106.77 35.9075 106.77 35.0235V33.8145H106.765Z" fill="#F56132"/>
<path d="M113.535 42.2579C111.608 42.2565 109.761 41.4946 108.398 40.1393C107.035 38.7839 106.268 36.9459 106.265 35.0285V33.8144C106.265 33.6825 106.318 33.5559 106.411 33.4626C106.505 33.3693 106.632 33.3169 106.765 33.3169H120.3C120.433 33.3169 120.56 33.3693 120.654 33.4626C120.747 33.5559 120.8 33.6825 120.8 33.8144V35.0285C120.797 36.945 120.031 38.7823 118.669 40.1375C117.307 41.4927 115.461 42.2552 113.535 42.2579ZM107.265 34.2971V35.0135C107.311 36.6371 107.992 38.1789 109.162 39.311C110.332 40.4432 111.9 41.0766 113.533 41.0766C115.165 41.0766 116.733 40.4432 117.903 39.311C119.073 38.1789 119.754 36.6371 119.8 35.0135V34.2971H107.265Z" fill="#093F68"/>
<path d="M133.835 33.8144H120.3L117.61 22.0623H129.345L133.835 33.8144Z" fill="white"/>
<path d="M133.835 34.3119H120.3C120.185 34.3149 120.073 34.2785 119.982 34.2087C119.891 34.1389 119.826 34.0401 119.8 33.9287L117.12 22.1617C117.104 22.0894 117.104 22.0144 117.12 21.942C117.136 21.8697 117.169 21.802 117.215 21.7438C117.262 21.6845 117.322 21.6366 117.391 21.6039C117.459 21.5711 117.534 21.5543 117.61 21.5547H129.345C129.447 21.554 129.546 21.5841 129.63 21.641C129.714 21.6978 129.778 21.7788 129.815 21.8731L134.315 33.6302C134.343 33.7057 134.352 33.7867 134.342 33.8664C134.331 33.9461 134.301 34.0222 134.255 34.088C134.209 34.1571 134.147 34.2138 134.074 34.2529C134 34.292 133.918 34.3123 133.835 34.3119ZM120.7 33.3168H133.11L129 22.5598H118.235L120.7 33.3168Z" fill="#093F68"/>
<path d="M120.3 33.8145H133.835V35.0235C133.835 35.9075 133.66 36.7829 133.32 37.5997C132.98 38.4164 132.482 39.1585 131.854 39.7836C131.225 40.4087 130.48 40.9046 129.659 41.2429C128.838 41.5812 127.958 41.7553 127.07 41.7553C126.182 41.7553 125.302 41.5812 124.481 41.2429C123.66 40.9046 122.915 40.4087 122.286 39.7836C121.658 39.1585 121.16 38.4164 120.82 37.5997C120.48 36.7829 120.305 35.9075 120.305 35.0235V33.8145H120.3Z" fill="white"/>
<path d="M127.07 42.2579C125.143 42.2565 123.296 41.4946 121.933 40.1393C120.57 38.7839 119.803 36.9459 119.8 35.0285V33.8144C119.8 33.6825 119.853 33.5559 119.946 33.4626C120.04 33.3693 120.167 33.3169 120.3 33.3169H133.835C133.968 33.3169 134.095 33.3693 134.189 33.4626C134.282 33.5559 134.335 33.6825 134.335 33.8144V35.0285C134.332 36.945 133.566 38.7823 132.204 40.1375C130.842 41.4927 128.996 42.2552 127.07 42.2579ZM120.8 34.2971V35.0135C120.846 36.6371 121.527 38.1789 122.697 39.311C123.867 40.4432 125.435 41.0766 127.067 41.0766C128.7 41.0766 130.268 40.4432 131.438 39.311C132.608 38.1789 133.289 36.6371 133.335 35.0135V34.2971H120.8Z" fill="#093F68"/>
<path d="M147.37 33.8144H133.835L129.345 22.0623H141.085L147.37 33.8144Z" fill="#F56132"/>
<path d="M147.37 34.3119H133.835C133.734 34.3116 133.636 34.281 133.553 34.2242C133.47 34.1674 133.406 34.087 133.37 33.9935L128.87 22.2364C128.841 22.1613 128.831 22.0805 128.841 22.0008C128.851 21.9211 128.879 21.8449 128.925 21.7786C128.971 21.7127 129.032 21.6589 129.104 21.6216C129.175 21.5844 129.254 21.5648 129.335 21.5647H141.075C141.165 21.5649 141.254 21.5896 141.332 21.636C141.409 21.6825 141.472 21.7489 141.515 21.8284L147.81 33.6054C147.854 33.681 147.877 33.7668 147.877 33.8542C147.877 33.9415 147.854 34.0273 147.81 34.1029C147.761 34.1722 147.694 34.2278 147.617 34.2644C147.54 34.301 147.455 34.3173 147.37 34.3119ZM134.18 33.3168H146.54L140.785 22.5598H130.07L134.18 33.3168Z" fill="#093F68"/>
<path d="M133.835 33.8145H147.37V35.0235C147.37 35.9075 147.195 36.7829 146.855 37.5997C146.515 38.4164 146.017 39.1585 145.389 39.7836C144.76 40.4087 144.015 40.9046 143.194 41.2429C142.373 41.5812 141.493 41.7553 140.605 41.7553C139.717 41.7553 138.837 41.5812 138.016 41.2429C137.195 40.9046 136.45 40.4087 135.821 39.7836C135.193 39.1585 134.695 38.4164 134.355 37.5997C134.015 36.7829 133.84 35.9075 133.84 35.0235V33.8145H133.835Z" fill="#F56132"/>
<path d="M140.605 42.2579C138.678 42.2565 136.831 41.4946 135.468 40.1393C134.105 38.7839 133.338 36.9459 133.335 35.0285V33.8144C133.335 33.6825 133.388 33.5559 133.481 33.4626C133.575 33.3693 133.702 33.3169 133.835 33.3169H147.37C147.503 33.3169 147.63 33.3693 147.724 33.4626C147.817 33.5559 147.87 33.6825 147.87 33.8144V35.0285C147.867 36.945 147.101 38.7823 145.739 40.1375C144.377 41.4927 142.531 42.2552 140.605 42.2579ZM134.335 34.2971V35.0135C134.381 36.6371 135.062 38.1789 136.232 39.311C137.402 40.4432 138.97 41.0766 140.603 41.0766C142.235 41.0766 143.803 40.4432 144.973 39.311C146.143 38.1789 146.824 36.6371 146.87 35.0135V34.2971H134.335Z" fill="#093F68"/>
<path d="M128.545 57.5376H103.81C101.645 57.5376 99.89 59.2829 99.89 61.4359C99.89 63.5889 101.645 65.3342 103.81 65.3342H128.545C130.71 65.3342 132.465 63.5889 132.465 61.4359C132.465 59.2829 130.71 57.5376 128.545 57.5376Z" fill="#68E1FD"/>
<path d="M128.55 65.8318H103.81C103.217 65.8516 102.627 65.7526 102.073 65.5406C101.52 65.3286 101.015 65.008 100.589 64.5979C100.163 64.1877 99.8237 63.6964 99.5921 63.1532C99.3606 62.61 99.2413 62.026 99.2413 61.4359C99.2413 60.8459 99.3606 60.2619 99.5921 59.7186C99.8237 59.1754 100.163 58.6841 100.589 58.274C101.015 57.8638 101.52 57.5432 102.073 57.3312C102.627 57.1193 103.217 57.0202 103.81 57.0401H128.55C129.143 57.0202 129.733 57.1193 130.287 57.3312C130.84 57.5432 131.345 57.8638 131.771 58.274C132.197 58.6841 132.536 59.1754 132.768 59.7186C132.999 60.2619 133.119 60.8459 133.119 61.4359C133.119 62.026 132.999 62.61 132.768 63.1532C132.536 63.6964 132.197 64.1877 131.771 64.5979C131.345 65.008 130.84 65.3286 130.287 65.5406C129.733 65.7526 129.143 65.8516 128.55 65.8318ZM103.81 58.0352C103.35 58.0177 102.892 58.0927 102.462 58.2557C102.032 58.4187 101.639 58.6664 101.308 58.9839C100.976 59.3014 100.712 59.6822 100.532 60.1036C100.352 60.5249 100.259 60.9781 100.259 61.4359C100.259 61.8938 100.352 62.347 100.532 62.7683C100.712 63.1896 100.976 63.5704 101.308 63.8879C101.639 64.2055 102.032 64.4531 102.462 64.6162C102.892 64.7792 103.35 64.8542 103.81 64.8367H128.55C129.01 64.8542 129.468 64.7792 129.898 64.6162C130.328 64.4531 130.721 64.2055 131.052 63.8879C131.384 63.5704 131.648 63.1896 131.828 62.7683C132.008 62.347 132.101 61.8938 132.101 61.4359C132.101 60.9781 132.008 60.5249 131.828 60.1036C131.648 59.6822 131.384 59.3014 131.052 58.9839C130.721 58.6664 130.328 58.4187 129.898 58.2557C129.468 58.0927 129.01 58.0177 128.55 58.0352H103.81Z" fill="#093F68"/>
<path d="M132.47 46.467H100.66C100.527 46.467 100.4 46.4146 100.306 46.3213C100.213 46.228 100.16 46.1014 100.16 45.9695C100.16 45.8375 100.213 45.711 100.306 45.6177C100.4 45.5243 100.527 45.4719 100.66 45.4719H132.47C132.603 45.4719 132.73 45.5243 132.824 45.6177C132.917 45.711 132.97 45.8375 132.97 45.9695C132.97 46.1014 132.917 46.228 132.824 46.3213C132.73 46.4146 132.603 46.467 132.47 46.467Z" fill="#DFEAEF"/>
<path d="M132.47 50.0842H100.66C100.527 50.0842 100.4 50.0318 100.306 49.9385C100.213 49.8452 100.16 49.7186 100.16 49.5867C100.16 49.4547 100.213 49.3281 100.306 49.2348C100.4 49.1415 100.527 49.0891 100.66 49.0891H132.47C132.603 49.0891 132.73 49.1415 132.824 49.2348C132.917 49.3281 132.97 49.4547 132.97 49.5867C132.97 49.7186 132.917 49.8452 132.824 49.9385C132.73 50.0318 132.603 50.0842 132.47 50.0842Z" fill="#DFEAEF"/>
<path d="M124.8 53.6965H100.66C100.527 53.6965 100.4 53.6441 100.306 53.5508C100.213 53.4575 100.16 53.3309 100.16 53.199C100.16 53.067 100.213 52.9405 100.306 52.8471C100.4 52.7538 100.527 52.7014 100.66 52.7014H124.8C124.933 52.7014 125.06 52.7538 125.154 52.8471C125.247 52.9405 125.3 53.067 125.3 53.199C125.3 53.3309 125.247 53.4575 125.154 53.5508C125.06 53.6441 124.933 53.6965 124.8 53.6965Z" fill="#DFEAEF"/>
<path d="M86.67 50.9648H69.755C69.0204 50.9648 68.425 51.5574 68.425 52.2883V52.4127C68.425 53.1437 69.0204 53.7362 69.755 53.7362H86.67C87.4045 53.7362 88 53.1437 88 52.4127V52.2883C88 51.5574 87.4045 50.9648 86.67 50.9648Z" fill="white"/>
<path d="M86.675 54.2337H69.755C69.27 54.2324 68.8053 54.0401 68.4624 53.6989C68.1195 53.3577 67.9263 52.8953 67.925 52.4127V52.2883C67.9263 51.8058 68.1195 51.3433 68.4624 51.0021C68.8053 50.6609 69.27 50.4686 69.755 50.4673H86.675C87.1595 50.4686 87.6236 50.661 87.9658 51.0024C88.3079 51.3438 88.5 51.8062 88.5 52.2883V52.4127C88.5 52.8948 88.3079 53.3572 87.9658 53.6986C87.6236 54.04 87.1595 54.2324 86.675 54.2337ZM69.755 51.4624C69.5349 51.4624 69.3237 51.5494 69.1681 51.7043C69.0124 51.8592 68.925 52.0693 68.925 52.2883V52.4127C68.925 52.6318 69.0124 52.8418 69.1681 52.9967C69.3237 53.1516 69.5349 53.2386 69.755 53.2386H86.675C86.7838 53.2386 86.8914 53.2172 86.9919 53.1757C87.0923 53.1341 87.1835 53.0732 87.2601 52.9964C87.3368 52.9197 87.3975 52.8286 87.4386 52.7284C87.4798 52.6282 87.5006 52.5209 87.5 52.4127V52.2883C87.5006 52.1801 87.4798 52.0728 87.4386 51.9726C87.3975 51.8724 87.3368 51.7814 87.2601 51.7046C87.1835 51.6278 87.0923 51.5669 86.9919 51.5254C86.8914 51.4838 86.7838 51.4624 86.675 51.4624H69.755Z" fill="#DFEAEF"/>
<path d="M83.795 63.2296H72.635C72.3461 63.2255 72.0678 63.1206 71.8485 62.9333C71.6293 62.7461 71.4829 62.4882 71.435 62.2047L69.82 53.7463H86.61L84.995 62.2047C84.9471 62.4882 84.8007 62.7461 84.5815 62.9333C84.3622 63.1206 84.0839 63.2255 83.795 63.2296Z" fill="white"/>
<path d="M83.795 63.7271H72.635C72.2294 63.7225 71.8382 63.5766 71.5295 63.3149C71.2207 63.0531 71.0139 62.6919 70.945 62.2942L69.33 53.8358C69.3158 53.763 69.3182 53.688 69.3369 53.6163C69.3556 53.5445 69.3901 53.4779 69.4381 53.4211C69.486 53.3644 69.5461 53.319 69.6139 53.2883C69.6817 53.2576 69.7555 53.2424 69.83 53.2437H86.62C86.6945 53.2424 86.7683 53.2576 86.8361 53.2883C86.9039 53.319 86.964 53.3644 87.0119 53.4211C87.0598 53.4779 87.0944 53.5445 87.1131 53.6163C87.1318 53.688 87.1342 53.763 87.12 53.8358L85.505 62.2942C85.4345 62.6948 85.2245 63.058 84.9118 63.32C84.5992 63.5821 84.2038 63.7262 83.795 63.7271ZM70.425 54.2339L71.925 62.1101C71.9518 62.2799 72.0374 62.4351 72.1671 62.5486C72.2968 62.6622 72.4623 62.7271 72.635 62.732H83.795C83.9674 62.7262 84.1324 62.661 84.2619 62.5475C84.3914 62.4341 84.4773 62.2795 84.505 62.1101L86.005 54.2339H70.425Z" fill="#DFEAEF"/>
<path d="M75.105 55.6519C75.105 55.2947 74.814 55.0051 74.455 55.0051C74.096 55.0051 73.805 55.2947 73.805 55.6519V60.7867C73.805 61.1439 74.096 61.4335 74.455 61.4335C74.814 61.4335 75.105 61.1439 75.105 60.7867V55.6519Z" fill="#DFEAEF"/>
<path d="M78.865 55.6519C78.865 55.2947 78.574 55.0051 78.215 55.0051C77.856 55.0051 77.565 55.2947 77.565 55.6519V60.7867C77.565 61.1439 77.856 61.4335 78.215 61.4335C78.574 61.4335 78.865 61.1439 78.865 60.7867V55.6519Z" fill="#DFEAEF"/>
<path d="M82.625 55.6519C82.625 55.2947 82.334 55.0051 81.975 55.0051C81.616 55.0051 81.325 55.2947 81.325 55.6519V60.7867C81.325 61.1439 81.616 61.4335 81.975 61.4335C82.334 61.4335 82.625 61.1439 82.625 60.7867V55.6519Z" fill="#DFEAEF"/>
<path d="M70.74 52.8458C70.6323 52.8456 70.5261 52.8198 70.4304 52.7705C70.3347 52.7211 70.2523 52.6497 70.19 52.5622C70.0894 52.4183 70.0503 52.2405 70.0812 52.068C70.1121 51.8954 70.2106 51.7421 70.355 51.6417L76.66 47.2583C76.8054 47.1735 76.9775 47.1463 77.1421 47.1822C77.3066 47.218 77.4516 47.3142 77.5481 47.4516C77.6446 47.5891 77.6855 47.7576 77.6627 47.9237C77.6399 48.0898 77.555 48.2413 77.425 48.3479L71.12 52.7264C71.0085 52.8036 70.8759 52.8452 70.74 52.8458Z" fill="#DFEAEF"/>
<path d="M85.69 52.8458C85.8314 52.8455 85.969 52.8005 86.0829 52.7172C86.1968 52.6338 86.281 52.5165 86.3234 52.3823C86.3658 52.2481 86.364 52.1039 86.3185 51.9707C86.2729 51.8376 86.1859 51.7223 86.07 51.6417L79.77 47.2583C79.6247 47.1735 79.4526 47.1463 79.288 47.1822C79.1234 47.218 78.9784 47.3142 78.8819 47.4516C78.7854 47.5891 78.7445 47.7576 78.7673 47.9237C78.7901 48.0898 78.875 48.2413 79.005 48.3479L85.31 52.7264C85.4216 52.8036 85.5541 52.8452 85.69 52.8458Z" fill="#DFEAEF"/>
<path d="M135.405 63.349L126.405 61.4484C126.316 61.4287 126.223 61.4317 126.135 61.4572C126.047 61.4827 125.966 61.5299 125.902 61.5944C125.837 61.6589 125.789 61.7385 125.764 61.8261C125.738 61.9136 125.735 62.0062 125.755 62.0952L127.665 71.0511C127.686 71.1471 127.732 71.2358 127.799 71.3079C127.866 71.3799 127.951 71.4327 128.046 71.4607C128.141 71.4887 128.241 71.4909 128.337 71.4669C128.432 71.443 128.52 71.3939 128.59 71.3247L130.445 69.4788L135.185 74.1956C135.358 74.3673 135.593 74.4636 135.837 74.4636C136.082 74.4636 136.317 74.3673 136.49 74.1956L138.585 72.1109C138.757 71.9384 138.854 71.7049 138.854 71.4616C138.854 71.2182 138.757 70.9848 138.585 70.8123L133.84 66.0955L135.7 64.2496C135.764 64.1781 135.809 64.0911 135.829 63.9972C135.848 63.9034 135.843 63.8059 135.813 63.7147C135.783 63.6235 135.73 63.5417 135.658 63.4775C135.587 63.4133 135.499 63.369 135.405 63.349Z" fill="#FFBC0E"/>
<path d="M135.815 74.9817C135.44 74.9798 135.081 74.8315 134.815 74.5687L130.43 70.2003L128.93 71.6929C128.796 71.8247 128.629 71.9182 128.447 71.9638C128.264 72.0093 128.072 72.0051 127.892 71.9517C127.712 71.8983 127.549 71.7976 127.421 71.6602C127.293 71.5227 127.205 71.3536 127.165 71.1705L125.255 62.2146C125.218 62.044 125.224 61.8668 125.273 61.6992C125.323 61.5316 125.413 61.379 125.537 61.2553C125.661 61.1316 125.814 61.0407 125.982 60.991C126.15 60.9413 126.328 60.9343 126.5 60.9707L135.5 62.8714C135.684 62.9111 135.855 62.9996 135.993 63.1274C136.131 63.2552 136.232 63.4177 136.285 63.5978C136.34 63.7772 136.344 63.968 136.297 64.1496C136.25 64.3312 136.155 64.4966 136.02 64.6277L134.52 66.1204L138.905 70.4888C139.169 70.7535 139.317 71.1112 139.317 71.4839C139.317 71.8567 139.169 72.2144 138.905 72.479L136.81 74.5638C136.547 74.8281 136.189 74.9782 135.815 74.9817ZM130.425 69.0111C130.491 69.0107 130.556 69.0233 130.617 69.048C130.678 69.0728 130.733 69.1093 130.78 69.1554L135.52 73.8722C135.559 73.9111 135.605 73.942 135.656 73.9631C135.707 73.9842 135.762 73.9951 135.817 73.9951C135.873 73.9951 135.928 73.9842 135.979 73.9631C136.03 73.942 136.076 73.9111 136.115 73.8722L138.21 71.7874C138.249 71.7486 138.28 71.7025 138.301 71.6517C138.323 71.6009 138.334 71.5464 138.334 71.4914C138.334 71.4364 138.323 71.3819 138.301 71.3311C138.28 71.2803 138.249 71.2342 138.21 71.1954L133.47 66.4786C133.423 66.4323 133.386 66.3773 133.361 66.3167C133.335 66.2561 133.322 66.191 133.322 66.1253C133.322 66.0597 133.335 65.9946 133.361 65.934C133.386 65.8734 133.423 65.8183 133.47 65.7721L135.325 63.9262L135.405 63.359L135.3 63.8565L126.3 61.9559L125.755 62.1151L126.255 62.0106L128.165 70.9665H128.245L130.1 69.1206C130.191 69.0435 130.306 69.0012 130.425 69.0012V69.0111Z" fill="#093F68"/>
<path d="M100 78.1312C99.442 78.1312 98.8966 77.9664 98.4328 77.6579C97.9689 77.3493 97.6075 76.9107 97.3942 76.3977C97.1809 75.8846 97.1253 75.3202 97.2345 74.7757C97.3438 74.2312 97.6128 73.7312 98.0077 73.339C98.4026 72.9467 98.9056 72.6798 99.4529 72.5721C100 72.4644 100.567 72.5207 101.083 72.7338C101.598 72.947 102.038 73.3074 102.347 73.7696C102.656 74.2317 102.821 74.7747 102.82 75.33C102.819 76.0733 102.521 76.7858 101.992 77.311C101.464 77.8362 100.747 78.1312 100 78.1312ZM100 73.5189C99.64 73.5189 99.2881 73.6251 98.9888 73.8241C98.6896 74.0231 98.4563 74.3059 98.3185 74.6369C98.1808 74.9678 98.1447 75.332 98.215 75.6833C98.2852 76.0346 98.4585 76.3573 98.7131 76.6106C98.9676 76.8639 99.2919 77.0363 99.6449 77.1062C99.998 77.1761 100.364 77.1402 100.696 77.0032C101.029 76.8661 101.313 76.634 101.513 76.3361C101.713 76.0383 101.82 75.6881 101.82 75.33C101.82 74.8496 101.628 74.389 101.287 74.0493C100.946 73.7097 100.483 73.5189 100 73.5189Z" fill="#093F68"/>
</svg>
